<svg width="24" height="24" viewBox="0 0 24 24" fill="none" xmlns="http://www.w3.org/2000/svg">
<path fill-rule="evenodd" clip-rule="evenodd" d="M11.94 21.1023C10.9492 21.1068 9.98885 21.339 9.0473 21.7656C9.00546 22.2472 8.63661 22.5378 7.93964 22.6369C7.40894 22.6298 6.87659 22.5103 6.34149 22.2786C6.00677 22.1774 5.73206 21.6148 5.39294 20.9219C5.05481 20.2309 4.66306 19.4095 4.31553 18.7837C4.23848 18.6472 4.23474 18.4813 4.30558 18.3415C4.5127 17.9292 4.85258 17.7644 5.24864 17.8647C5.35132 17.8905 5.43798 17.9591 5.4866 18.0532C5.54486 18.1657 5.61976 18.3105 5.61976 18.3105C6.04366 18.4497 6.47581 18.562 6.92614 18.6166L6.98174 18.5703C6.96963 18.5632 6.95807 18.5549 6.94651 18.5478C4.38384 16.9336 2.65687 14.1218 2.59961 10.905C2.50878 5.80806 6.64097 1.57582 11.7982 1.48391C11.8534 1.48292 11.9085 1.48242 11.9634 1.48242L12.0046 1.48253C12.0459 1.4827 12.0872 1.48319 12.1285 1.48391C17.2858 1.57582 21.418 5.80806 21.3272 10.905C21.2699 14.1218 19.5429 16.9336 16.9803 18.5478C16.9687 18.5549 16.9571 18.5632 16.945 18.5703L17.0006 18.6166C17.451 18.562 17.8831 18.4497 18.307 18.3105C18.307 18.3105 18.3819 18.1657 18.4401 18.0532C18.4888 17.9591 18.5754 17.8905 18.6781 17.8647C19.0742 17.7644 19.4141 17.9292 19.6212 18.3415C19.692 18.4813 19.6883 18.6472 19.6112 18.7837C19.2637 19.4095 18.872 20.2309 18.5338 20.9219C18.1947 21.6148 17.92 22.1774 17.5853 22.2786C17.0502 22.5103 16.5178 22.6298 15.9871 22.6369C15.2902 22.5378 14.9213 22.2472 14.8795 21.7656C13.9305 21.3357 12.9624 21.1032 11.9634 21.1022L11.94 21.1023ZM5.75628 18.6754C5.75628 18.6754 6.00441 19.3597 6.13785 19.6983C6.31044 20.1362 6.79181 21.3028 6.79181 21.3028C6.90467 21.5791 7.13368 21.7877 6.54353 22.0981C6.55068 22.119 6.55784 22.1393 6.56555 22.1668C6.92724 22.2852 7.25424 22.3969 7.59336 22.3909C7.6341 22.3694 7.67539 22.3546 7.71007 22.3403L6.0932 19.0062C5.92309 18.6556 5.8774 18.6369 5.75628 18.6754ZM18.1705 18.6754C18.1705 18.6754 17.9224 19.3597 17.7889 19.6983C17.6163 20.1362 17.135 21.3028 17.135 21.3028C17.0221 21.5791 16.7931 21.7877 17.3832 22.0981C17.3761 22.119 17.3689 22.1393 17.3612 22.1668C16.9995 22.2852 16.6725 22.3969 16.3334 22.3909C16.2927 22.3694 16.2514 22.3546 16.2167 22.3403L17.8336 19.0062C18.0037 18.6556 18.0494 18.6369 18.1705 18.6754ZM15.9741 18.3005C14.838 17.6838 13.4049 17.4408 11.9634 17.4814L11.9146 17.4801C9.84935 17.4311 7.80802 17.9666 6.63987 19.3512C6.61785 19.5328 7.67925 21.5532 7.90165 21.846C8.0002 21.9413 8.03488 21.9544 8.11858 21.9666C9.09778 21.1361 10.5275 20.7847 11.9634 20.8044L11.997 20.804C13.4216 20.7902 14.8366 21.1426 15.8082 21.9666C15.8919 21.9544 15.9266 21.9413 16.0251 21.846C16.2475 21.5532 17.3089 19.5328 17.2869 19.3512C16.9318 18.9303 16.496 18.5879 16.0033 18.3165C15.9956 18.3281 15.9793 18.3458 15.9543 18.3697C15.8894 18.4311 15.8175 18.4879 15.7389 18.5397C15.6598 18.5921 15.5791 18.6338 15.4968 18.6661L15.2919 18.7504C15.2227 18.7712 15.1525 18.7925 15.0817 18.8137C15.0114 18.8355 14.9408 18.8536 14.8697 18.8686C14.8647 18.87 14.8599 18.8713 14.8554 18.8725C14.8533 18.8761 14.8508 18.8799 14.8479 18.8837C14.836 18.9025 14.8242 18.9198 14.8129 18.936C14.8016 18.9523 14.7904 18.969 14.779 18.9863C14.7455 19.0398 14.7131 19.0933 14.6811 19.1474L14.6289 19.2423C14.5912 19.3082 14.5575 19.3763 14.5284 19.4472C14.4993 19.5182 14.4723 19.5888 14.4469 19.6594L14.4464 19.6604C14.4144 19.7492 14.4019 19.8195 14.4088 19.8714C14.4157 19.9234 14.445 19.9588 14.4967 19.9774C14.5154 19.9842 14.5329 19.9847 14.5492 19.9791C14.5654 19.9734 14.5804 19.9646 14.5944 19.9529C14.6084 19.9411 14.6212 19.9276 14.6329 19.9124C14.6446 19.8971 14.6546 19.883 14.6628 19.8701C14.6776 19.8488 14.689 19.8405 14.697 19.8452C14.7051 19.8498 14.7057 19.8616 14.699 19.8804C14.6805 19.9215 14.656 19.9685 14.6256 20.0212C14.595 20.0739 14.5608 20.1222 14.5228 20.166C14.4849 20.2098 14.4452 20.2437 14.4038 20.2678C14.3624 20.2917 14.3213 20.2965 14.2806 20.2817C14.2368 20.2659 14.2067 20.2413 14.1903 20.208C14.1741 20.1747 14.1657 20.1376 14.1654 20.0968C14.1651 20.056 14.1706 20.0151 14.1819 19.974C14.1932 19.9329 14.2042 19.8976 14.2149 19.8678L14.2152 19.8674C14.2337 19.8208 14.2548 19.7727 14.2781 19.7221C14.3016 19.6713 14.3244 19.6215 14.3457 19.5722C14.3566 19.5518 14.3615 19.5373 14.3608 19.53C14.3596 19.5225 14.3451 19.5292 14.3169 19.5488C14.2396 19.606 14.1633 19.6547 14.0884 19.6962C14.0136 19.7372 13.9333 19.7696 13.8488 19.7939C13.7237 19.8303 13.5954 19.8483 13.4638 19.8478C13.3321 19.8473 13.2001 19.8326 13.0666 19.8041C12.9633 19.7824 12.8587 19.7543 12.7539 19.7188C12.6486 19.684 12.541 19.64 12.4308 19.588C12.382 19.5652 12.3396 19.5406 12.3026 19.5153C12.266 19.4895 12.2365 19.4597 12.2146 19.4251C12.1926 19.3905 12.1783 19.3499 12.1722 19.3035C12.166 19.257 12.1707 19.2022 12.1863 19.1389C12.1971 19.0986 12.2123 19.0574 12.2311 19.0152C12.2493 18.9736 12.2701 18.9338 12.2929 18.896C12.3134 18.8624 12.3299 18.848 12.3417 18.8522C12.353 18.8564 12.3535 18.879 12.3427 18.9188C12.333 18.9562 12.3303 18.9906 12.3346 19.0223C12.3388 19.054 12.3521 19.0835 12.3744 19.1113C12.43 19.1774 12.4968 19.2288 12.5747 19.2656C12.6527 19.3023 12.7313 19.336 12.8106 19.3666C13.0975 19.4789 13.4145 19.5402 13.7613 19.55C13.8315 19.5523 13.9004 19.5488 13.9679 19.54C14.036 19.5307 14.1019 19.5128 14.1667 19.4866C14.2656 19.4478 14.3484 19.3941 14.4147 19.3254C14.4809 19.2562 14.4976 19.2429 14.5524 19.1512C14.5639 19.1291 14.5769 19.1104 14.5913 19.0948C14.6056 19.0797 14.6194 19.0652 14.6338 19.0507C14.6669 19.0166 14.6999 18.9836 14.7319 18.9506C14.7561 18.9264 14.781 18.9026 14.807 18.8792C14.8026 18.8758 14.812 18.8622 14.8356 18.8381C14.8662 18.8118 14.8968 18.7849 14.9271 18.757C14.9578 18.7291 14.9919 18.7066 15.0293 18.6901C15.061 18.6769 15.1027 18.66 15.1551 18.64C15.201 18.6222 15.4293 18.5412 15.4972 18.514C15.6331 18.4592 15.7677 18.3985 15.9015 18.332C15.9166 18.3249 15.9331 18.3173 15.9524 18.3088C15.9603 18.3054 15.9675 18.3026 15.9741 18.3005ZM6.45989 21.9213C6.5392 21.8836 6.65638 21.8196 6.65363 21.6814C6.47967 21.6292 6.25836 21.6192 6.17303 21.8972C6.25821 21.9597 6.39731 21.951 6.45989 21.9213ZM17.4669 21.9213C17.3875 21.8836 17.2704 21.8196 17.2731 21.6814C17.4471 21.6292 17.6684 21.6192 17.7537 21.8972C17.6685 21.9597 17.5295 21.951 17.4669 21.9213ZM5.192 18.0766C4.79149 17.95 4.49009 18.2648 4.57047 18.5846L6.07424 21.6881C6.22405 21.5039 6.37206 21.4852 6.51875 21.4762L5.192 18.0766ZM18.7348 18.0766C19.1353 17.95 19.4367 18.2648 19.3563 18.5846L17.8525 21.6881C17.7027 21.5039 17.5547 21.4852 17.408 21.4762L18.7348 18.0766ZM14.6184 20.8753C14.6269 20.8518 14.664 20.8103 14.7296 20.7508C14.7954 20.6913 14.8346 20.6639 14.8471 20.6684C14.8878 20.6831 14.92 20.7164 14.9438 20.7684C14.9675 20.8203 14.9726 20.865 14.959 20.9026C14.9467 20.937 14.9133 20.9742 14.8591 21.014C14.8049 21.0536 14.7677 21.0698 14.7473 21.0625C14.738 21.0591 14.7126 21.0288 14.6713 20.9714C14.6571 20.9521 14.6428 20.9328 14.6285 20.9135C14.6178 20.899 14.6145 20.8862 14.6184 20.8753ZM8.86932 20.914C8.86805 20.9058 8.88396 20.8599 8.91705 20.7763C8.95019 20.6927 8.9716 20.65 8.98151 20.6485C9.00942 20.6441 9.04504 20.6561 9.08837 20.6846C9.13197 20.7148 9.15619 20.7454 9.16115 20.7768C9.16687 20.8129 9.15526 20.862 9.1263 20.9239C9.09707 20.9841 9.07422 21.0156 9.05781 21.0182C9.04956 21.0194 9.03618 21.0144 9.01746 21.003C8.99885 20.9917 8.98014 20.9798 8.96131 20.9677C8.93973 20.9593 8.91947 20.9512 8.90048 20.9432C8.88154 20.9352 8.87113 20.9255 8.86932 20.914ZM8.64036 20.6343C8.63826 20.6211 8.65539 20.5695 8.69166 20.4795C8.728 20.3895 8.75107 20.3437 8.76092 20.3421C8.78233 20.3387 8.81592 20.3486 8.86172 20.3716C8.90587 20.395 8.93747 20.4186 8.95641 20.4426C8.97369 20.4028 8.99181 20.3628 9.01074 20.3228C9.03722 20.2663 9.05374 20.2376 9.06029 20.2365C9.08991 20.2318 9.12894 20.2442 9.17744 20.2736C9.22644 20.3063 9.25369 20.3398 9.25919 20.3743C9.26547 20.4139 9.25094 20.4658 9.2157 20.5304C9.18124 20.5898 9.15498 20.621 9.13692 20.6239C9.12371 20.626 9.10119 20.6169 9.06937 20.5966C9.02418 20.5667 8.98707 20.5456 8.95817 20.5333C8.91253 20.6603 8.87086 20.7267 8.83298 20.7327C8.82643 20.7337 8.79285 20.7188 8.73229 20.688C8.67179 20.6571 8.64113 20.6392 8.64036 20.6343ZM15.4583 19.1257C15.4603 19.1237 15.4624 19.1218 15.4644 19.1199C15.4725 19.1121 15.479 19.1075 15.4841 19.1057C15.4891 19.104 15.4913 19.1066 15.4906 19.1134C15.4898 19.1203 15.4832 19.1338 15.4706 19.154C15.3943 19.2822 15.3227 19.4143 15.2559 19.5504C15.0766 19.9154 15.207 19.6477 15.1146 19.8764C15.0824 19.9656 15.0697 20.0363 15.0766 20.0883C15.0835 20.1403 15.1128 20.1757 15.1645 20.1944C15.1833 20.2011 15.2008 20.2017 15.217 20.196C15.2333 20.1904 15.2483 20.1816 15.2623 20.1699C15.2762 20.1581 15.2891 20.1446 15.3008 20.1294C15.3125 20.1141 15.3224 20.1 15.3306 20.0871C15.3454 20.0658 15.3568 20.0575 15.3648 20.0622C15.3729 20.0669 15.3736 20.0786 15.3668 20.0974C15.3484 20.1385 15.3239 20.1855 15.2934 20.2382C15.2629 20.2909 15.2286 20.3392 15.1907 20.383C15.1527 20.4267 15.113 20.4607 15.0717 20.4847C15.0302 20.5087 14.9892 20.5134 14.9485 20.4987C14.9046 20.4829 14.8745 20.4583 14.8582 20.425C14.8419 20.3917 14.8336 20.3546 14.8333 20.3138C14.833 20.273 14.8385 20.232 14.8497 20.191C14.861 20.1499 14.872 20.1145 14.8828 20.0847L14.8867 20.0812C14.9138 20.0068 14.9563 19.9126 15.0138 19.7989C15.1438 19.5418 14.9507 19.9123 15.2048 19.4271C15.2269 19.3855 15.2536 19.3456 15.2852 19.3074C15.3036 19.2858 15.326 19.2606 15.3522 19.2321C15.3784 19.2034 15.4077 19.1738 15.4401 19.143C15.4421 19.141 15.4442 19.1391 15.4462 19.1372L15.4583 19.1257ZM10.0307 19.3392C10.171 19.3204 10.3072 19.2962 10.4391 19.2669C10.571 19.2375 10.7009 19.1959 10.8289 19.1419C10.9426 19.0935 11.0521 19.0369 11.1574 18.9722C11.2625 18.9075 11.3634 18.8389 11.4598 18.7663C11.5953 18.6639 11.722 18.5566 11.8399 18.4444C11.9578 18.3322 12.0786 18.2191 12.2021 18.1051C12.2388 18.0706 12.2757 18.0378 12.313 18.0067C12.3501 17.9754 12.3902 17.9464 12.4332 17.9193C12.473 17.8945 12.5014 17.887 12.5182 17.8969C12.5348 17.9069 12.5354 17.9318 12.5198 17.9713C12.5094 18.0016 12.4983 18.0329 12.4866 18.0651C12.4748 18.0973 12.4611 18.1273 12.4452 18.155C12.4375 18.1697 12.4288 18.1816 12.4193 18.1907C12.4098 18.1998 12.3973 18.209 12.3819 18.2182C12.3602 18.2301 12.3295 18.2543 12.2897 18.2909C12.25 18.3276 12.1995 18.3752 12.1379 18.4338C12.0662 18.5025 11.9947 18.5724 11.9233 18.6435C11.852 18.7147 11.7792 18.7848 11.7051 18.8538C11.6309 18.923 11.5555 18.9901 11.479 19.0553C11.4025 19.1205 11.3233 19.1815 11.2413 19.2383C10.8969 19.48 10.5125 19.6345 10.0882 19.7017C9.97944 19.7172 9.88618 19.73 9.8085 19.7397C9.73077 19.7495 9.66471 19.7529 9.61026 19.7497C9.55058 19.7456 9.4914 19.739 9.43261 19.7298C9.37381 19.7206 9.31672 19.706 9.26129 19.6862C9.23976 19.6777 9.22264 19.6712 9.21014 19.6664C9.19759 19.6617 9.18625 19.6593 9.17612 19.6592C9.16599 19.6591 9.15652 19.6632 9.14771 19.6712C9.13885 19.6794 9.12751 19.6931 9.11369 19.712C9.10125 19.7292 9.08831 19.749 9.07505 19.7713C9.06172 19.7936 9.04576 19.8206 9.0272 19.8521C8.99192 19.9066 8.94749 19.9479 8.89376 19.9758C8.84003 20.0035 8.78035 20.0126 8.71473 20.0028C8.67834 19.9968 8.64531 19.9902 8.61547 19.9832C8.58574 19.9761 8.55216 19.9772 8.51484 19.9865C8.48082 19.9952 8.44817 20.0072 8.41685 20.0222C8.38552 20.0373 8.35524 20.0589 8.32596 20.0872C8.28186 20.1279 8.25279 20.1464 8.2387 20.1428C8.2246 20.139 8.23193 20.1105 8.2605 20.0571C8.29276 19.9947 8.33074 19.9339 8.37446 19.8748C8.41822 19.8155 8.46755 19.7623 8.52233 19.7148C8.55046 19.6901 8.58101 19.6672 8.61382 19.6459C8.64674 19.6247 8.68236 19.6127 8.72068 19.61C8.7525 19.6084 8.78421 19.6117 8.81592 19.6202C8.84757 19.6287 8.87967 19.6345 8.91226 19.6378C8.94832 19.6422 8.98014 19.6381 9.00761 19.6252C9.03508 19.6125 9.05947 19.5934 9.08077 19.5681C9.10532 19.5423 9.12712 19.5153 9.14628 19.4869C9.16539 19.4586 9.18443 19.4303 9.20365 19.402C9.23128 19.3639 9.2576 19.3383 9.28243 19.325C9.30731 19.3119 9.34502 19.3105 9.39561 19.321C9.51018 19.3416 9.61703 19.3538 9.71623 19.3574C9.81544 19.3611 9.92031 19.355 10.0307 19.3392ZM14.8828 19.1133C14.8908 19.0914 14.9275 19.0506 14.9933 18.9911C15.059 18.9317 15.0981 18.9042 15.1107 18.9087C15.1514 18.9234 15.1836 18.9567 15.2074 19.0086C15.2311 19.0606 15.2362 19.1053 15.2226 19.1429C15.2102 19.1773 15.177 19.214 15.1231 19.253C15.0693 19.292 15.0321 19.3078 15.0118 19.3004C15.0024 19.2971 14.977 19.2667 14.9358 19.2093C14.9209 19.1916 14.9064 19.1731 14.8921 19.1537C14.8819 19.1377 14.8789 19.1242 14.8828 19.1133ZM12.0068 1.98721C12.0503 1.98737 12.0938 1.98781 12.1374 1.98858C14.58 2.03206 16.7799 3.05793 18.3588 4.67818C19.9371 6.29793 20.8944 8.51141 20.8515 10.9303C20.8234 12.4883 20.3836 13.9473 19.6365 15.206C18.8928 16.4591 17.9299 17.4778 16.6879 18.2318C16.6593 18.2495 16.6307 18.2676 16.6015 18.2852L16.7012 18.3677C16.7276 18.3512 16.7535 18.3342 16.7804 18.3177C19.2803 16.7596 20.9682 14.0277 21.0238 10.8994C21.1119 5.96772 17.1135 1.87301 12.123 1.78391C12.083 1.78319 12.0431 1.78275 12.0033 1.78253L11.9634 1.78248C11.9103 1.78248 11.857 1.78297 11.8037 1.78391C6.81328 1.87301 2.81487 5.96772 2.90295 10.8994C2.95855 14.0277 4.64644 16.7596 7.14634 18.3177C7.17332 18.3342 7.19919 18.3512 7.22556 18.3677L7.32526 18.2852C7.29608 18.2676 7.26746 18.2495 7.23883 18.2318C5.99686 17.4778 5.03401 16.4591 4.29026 15.206C3.5432 13.9473 3.10334 12.4883 3.07526 10.9303C3.03232 8.51141 3.98967 6.29793 5.56801 4.67818C7.14689 3.05793 9.34678 2.03206 11.7894 1.98858C11.8475 1.98754 11.9055 1.9871 11.9634 1.98715L12.0068 1.98721ZM17.3748 4.53145C17.3813 4.51791 17.3879 4.50448 17.3949 4.49127L17.3978 4.48572L17.4418 4.40613C17.4645 4.42622 17.4872 4.44637 17.5099 4.46651C17.5353 4.48962 17.5595 4.51428 17.5827 4.53965C17.6117 4.57141 17.6393 4.60448 17.6653 4.63872C17.7694 4.77575 17.8507 4.93349 17.8858 5.10261L17.889 5.09601L17.8918 5.09039L17.9336 5.00966C17.9568 5.02914 17.98 5.04862 18.0032 5.0681C18.0293 5.09056 18.0542 5.1145 18.0781 5.13921C18.1079 5.17019 18.1364 5.2025 18.1634 5.23602C18.2559 5.35104 18.332 5.4817 18.3768 5.62264L18.3751 5.62121L18.4457 5.6785C18.4722 5.70052 18.4974 5.72402 18.5218 5.74834C18.5522 5.77878 18.5812 5.81059 18.6087 5.84367C18.7296 5.9889 18.8241 6.16029 18.8608 6.34697C18.8618 6.35214 18.8628 6.35731 18.8637 6.36249L18.8821 6.32963C18.9047 6.34988 18.9272 6.37014 18.9498 6.39044C18.9751 6.41378 18.9991 6.43849 19.0221 6.46408C19.051 6.496 19.0783 6.52924 19.1041 6.56364C19.2175 6.71488 19.3032 6.89088 19.3303 7.07916C19.3473 7.1971 19.3414 7.31719 19.3191 7.43414L19.3195 7.43348C19.3496 7.38455 19.3827 7.33744 19.4191 7.29314L19.4231 7.2883L19.4825 7.21939C19.5005 7.24372 19.5187 7.26804 19.5367 7.29237C19.5569 7.32022 19.5755 7.34922 19.5931 7.37883C19.615 7.41581 19.6353 7.45384 19.6537 7.49264C19.7349 7.66331 19.7841 7.85274 19.7735 8.04261C19.7708 8.08961 19.7647 8.13617 19.7554 8.18213L19.8273 8.11735C19.8421 8.14377 19.857 8.17019 19.8719 8.1966C19.8883 8.22682 19.9031 8.25797 19.9167 8.28956C19.9337 8.32907 19.949 8.36936 19.9624 8.4102C20.0212 8.58978 20.0458 8.78394 20.011 8.97096C20.0014 9.0228 19.9874 9.0736 19.9697 9.12313C19.9801 9.11482 19.9907 9.10667 20.0015 9.09869L20.0066 9.09501L20.0808 9.04256C20.0925 9.07051 20.1041 9.09853 20.1157 9.12649C20.1286 9.15846 20.1396 9.1911 20.1494 9.22406C20.1617 9.26529 20.1721 9.30706 20.1806 9.34922C20.2179 9.53446 20.2196 9.73017 20.1631 9.91179C20.1385 9.99104 20.1034 10.0665 20.0606 10.1374C20.0786 10.1254 20.0969 10.1139 20.1154 10.103L20.1209 10.0998L20.2001 10.0553C20.2088 10.0844 20.2175 10.1134 20.2262 10.1424C20.2356 10.1755 20.2432 10.2091 20.2496 10.243C20.2576 10.2853 20.2636 10.3279 20.2676 10.3707C20.2855 10.5588 20.267 10.7537 20.192 10.9285C20.146 11.0356 20.0805 11.133 20.0028 11.2197L20.0056 11.2181C20.0598 11.1871 20.116 11.1596 20.1741 11.1368L20.1799 11.1346L20.2654 11.1033C20.2693 11.1334 20.2732 11.1634 20.2771 11.1935C20.2812 11.2276 20.2833 11.262 20.2841 11.2965C20.2852 11.3395 20.2843 11.3825 20.2815 11.4254C20.2691 11.614 20.2196 11.8033 20.1176 11.9639C20.053 12.0655 19.9694 12.1536 19.8752 12.2283C19.927 12.2101 19.9798 12.1948 20.0334 12.1834L20.0396 12.1822L20.129 12.1653C20.1279 12.1956 20.1269 12.2259 20.1258 12.2561C20.1242 12.2905 20.1206 12.3248 20.1159 12.3589C20.11 12.4015 20.102 12.4438 20.0922 12.4857C20.0492 12.6697 19.9693 12.8484 19.8424 12.9902C19.7272 13.1189 19.5777 13.2138 19.4187 13.2793C19.3804 13.2951 19.3413 13.3094 19.3016 13.3218C19.3015 13.3362 19.3011 13.3507 19.3005 13.3651C19.3769 13.327 19.4576 13.2973 19.5397 13.2749C19.6166 13.254 19.6956 13.2389 19.7751 13.2322L19.7814 13.2318L19.8722 13.2262C19.8673 13.2561 19.8625 13.286 19.8577 13.316C19.8518 13.3499 19.844 13.3834 19.835 13.4167C19.8237 13.4582 19.8105 13.4992 19.7956 13.5395C19.7298 13.7166 19.6283 13.8839 19.4846 14.0087C19.3542 14.122 19.1941 14.1975 19.0281 14.2427C18.9769 14.2566 18.9247 14.268 18.8721 14.2759C18.8678 14.3007 18.8628 14.3252 18.857 14.3496C18.9392 14.3266 19.024 14.3127 19.1089 14.3063C19.1384 14.304 19.1679 14.3029 19.1975 14.3024C19.2087 14.3023 19.2198 14.3022 19.2309 14.3023C19.2701 14.3028 19.3092 14.3047 19.3482 14.3089L19.3544 14.3096L19.4446 14.3214C19.4335 14.3518 19.4226 14.3823 19.4111 14.4126C19.382 14.4869 19.3451 14.5583 19.303 14.626C19.209 14.7775 19.0856 14.9138 18.9323 15.0067C18.7791 15.0997 18.6012 15.1463 18.4234 15.1598C18.3932 15.1621 18.3628 15.1635 18.3323 15.1638C18.3296 15.1713 18.3267 15.1786 18.3238 15.186C18.3696 15.1802 18.4161 15.1772 18.4623 15.1763C18.4725 15.1762 18.4827 15.1762 18.4929 15.1763C18.5124 15.1765 18.532 15.177 18.5514 15.178C18.6014 15.1805 18.6512 15.1857 18.7005 15.1934C18.7392 15.1995 18.7777 15.2072 18.8156 15.2169L18.8217 15.2186L18.9092 15.2433C18.8938 15.2718 18.8786 15.3004 18.8629 15.3287C18.8233 15.398 18.7763 15.4632 18.7249 15.5242C18.61 15.6604 18.468 15.7773 18.3028 15.8471C18.1759 15.9007 18.0386 15.925 17.9011 15.9278C17.9544 15.9322 18.0075 15.9397 18.0599 15.9501C18.1131 15.9608 18.1658 15.9742 18.2171 15.9915L18.2231 15.9936L18.3085 16.0246C18.291 16.0519 18.2739 16.0794 18.2561 16.1064C18.2116 16.1726 18.16 16.2343 18.1043 16.2914C17.9797 16.4188 17.8297 16.5251 17.6599 16.5827C17.5867 16.6075 17.5108 16.6229 17.434 16.6304C17.4316 16.6298 17.5046 16.6484 17.5427 16.6612L17.5486 16.6633L17.6341 16.6943C17.6167 16.7216 17.5994 16.7491 17.5817 16.7762C17.5371 16.8424 17.4856 16.904 17.4299 16.961C17.3053 17.0885 17.1552 17.1948 16.9855 17.2524C16.8157 17.31 16.6319 17.3169 16.4555 17.2915C16.4184 17.2862 16.3814 17.2795 16.3447 17.2712C16.3387 17.2849 16.3325 17.2984 16.326 17.3118C16.3401 17.311 16.3542 17.3105 16.3683 17.3102C16.3793 17.3101 16.3903 17.31 16.4012 17.3101C16.4872 17.311 16.5728 17.3202 16.6572 17.337C16.7103 17.3476 16.7629 17.3611 16.8143 17.3784L16.8202 17.3804L16.9057 17.4114C16.8883 17.4387 16.8711 17.4662 16.8533 17.4933C16.8088 17.5595 16.7573 17.6211 16.7015 17.6782C16.577 17.8057 16.4268 17.9119 16.2571 17.9695C16.1735 17.9979 16.0864 18.014 15.9985 18.0199C16.1291 18.0828 16.263 18.1495 16.4017 18.2202C16.4545 18.1895 16.5063 18.1576 16.5586 18.1256C17.7714 17.3821 18.7898 16.354 19.5143 15.1333C20.2487 13.8961 20.6814 12.4608 20.7089 10.9275C20.7513 8.54773 19.8094 6.37052 18.2564 4.77669C16.7034 3.18346 14.5387 2.17405 12.1346 2.13118C12.0917 2.13041 12.0489 2.12997 12.0061 2.12981L11.9634 2.12975C11.9064 2.1297 11.8493 2.13014 11.7922 2.13118C9.38807 2.17405 7.22342 3.18346 5.67035 4.77669C4.11734 6.37052 3.17546 8.54773 3.21785 10.9275C3.24537 12.4608 3.67808 13.8961 4.41247 15.1333C5.13695 16.354 6.15541 17.3821 7.3682 18.1256C7.42045 18.1576 7.47225 18.1895 7.5251 18.2202C7.63728 18.163 7.74637 18.1084 7.85305 18.0564C7.78172 18.0413 7.71151 18.0211 7.64311 17.995C7.40176 17.9032 7.18989 17.7445 7.01426 17.557C6.97535 17.5155 6.93812 17.4724 6.90269 17.4278C6.86672 17.3826 6.83264 17.3359 6.80119 17.2875L6.76482 17.2281C6.68306 17.2026 6.60347 17.1703 6.52731 17.1306C6.32108 17.0231 6.1455 16.8635 6.00245 16.6814C5.9788 16.6513 5.95601 16.6205 5.93406 16.5892C5.89755 16.537 5.86338 16.4832 5.83175 16.4279C5.8066 16.3839 5.78296 16.339 5.76197 16.293L5.75964 16.2877L5.72519 16.208C5.74037 16.2049 5.75553 16.2018 5.77071 16.1987C5.64388 16.1398 5.52437 16.0656 5.41832 15.9741C5.24223 15.8222 5.10789 15.6266 5.01038 15.4166C4.99426 15.3818 4.97913 15.3467 4.96495 15.3111C4.94138 15.252 4.92044 15.1917 4.90233 15.1307C4.88792 15.0822 4.87521 15.0331 4.86533 14.9834L4.86427 14.9778L4.84892 14.8922C4.87788 14.8931 4.90683 14.894 4.93579 14.8949C4.9425 14.8952 4.94921 14.8955 4.95592 14.8959C4.7866 14.7876 4.6335 14.6526 4.51575 14.4892C4.37979 14.3006 4.29458 14.0791 4.24857 13.8522C4.24096 13.8147 4.23442 13.777 4.2289 13.7391C4.21972 13.6761 4.21335 13.6127 4.20992 13.5491C4.2072 13.4985 4.20624 13.4478 4.20818 13.3972L4.20846 13.3915L4.21342 13.3048C4.24136 13.3123 4.2693 13.3199 4.29724 13.3275C4.34325 13.3404 4.38845 13.3564 4.433 13.3736C4.47252 13.3888 4.51156 13.4053 4.55006 13.423C4.53524 13.4132 4.52054 13.4033 4.50598 13.3931C4.47455 13.3713 4.4437 13.3486 4.41353 13.325C4.231 13.1825 4.07095 13.0074 3.96285 12.8015C3.85476 12.5956 3.80151 12.3645 3.78786 12.1332C3.7856 12.0951 3.78443 12.0568 3.78429 12.0185C3.78406 11.9548 3.78669 11.8911 3.79223 11.8277C3.79664 11.7772 3.80283 11.7269 3.81187 11.6771L3.81295 11.6714L3.83007 11.5862C3.85667 11.5977 3.88327 11.6091 3.90987 11.6206C3.9536 11.6399 3.99609 11.662 4.03777 11.6853C4.0898 11.7144 4.1829 11.7725 4.1794 11.7691C4.15184 11.7425 4.12499 11.7153 4.09893 11.6872C3.9413 11.5175 3.81105 11.3192 3.737 11.0988C3.66293 10.8784 3.64702 10.6417 3.6702 10.4113C3.67404 10.3733 3.67895 10.3352 3.68488 10.2974C3.69475 10.2345 3.70744 10.1721 3.72298 10.1103C3.73533 10.0612 3.74943 10.0125 3.76626 9.96468L3.76822 9.95928L3.79861 9.87805C3.82306 9.89352 3.84751 9.90898 3.87195 9.92445C3.91207 9.95042 3.95053 9.97899 3.98799 10.0087C4.03912 10.049 4.08831 10.0919 4.13545 10.1369C4.15491 10.1555 4.17402 10.1744 4.19274 10.1937L4.19528 10.188C4.15901 10.1409 4.12477 10.0922 4.09263 10.0422C4.07194 10.01 4.05212 9.97717 4.03325 9.94388C3.91906 9.74244 3.83809 9.51944 3.8169 9.28791C3.79572 9.05631 3.83489 8.82236 3.91065 8.60354C3.92318 8.56738 3.93672 8.53155 3.95122 8.49611C3.97536 8.43722 4.00212 8.37932 4.0315 8.32286C4.05486 8.27789 4.07982 8.23375 4.10723 8.19116L4.11038 8.18631L4.15876 8.11422C4.17896 8.13496 4.19916 8.15566 4.21936 8.17641C4.25242 8.21086 4.28323 8.24757 4.31284 8.28505C4.31672 8.28994 4.32057 8.29484 4.32439 8.2998C4.26989 8.1179 4.24261 7.92742 4.25574 7.73766C4.27179 7.50569 4.34781 7.28098 4.4575 7.07701C4.47563 7.04333 4.49472 7.01015 4.5147 6.97745C4.54792 6.92313 4.58358 6.8703 4.6216 6.81917C4.65183 6.77856 4.68352 6.73893 4.71737 6.70123L4.72123 6.69705L4.78047 6.63348C4.79712 6.65715 4.81378 6.68087 4.83043 6.70459C4.85755 6.74394 4.88211 6.78505 4.90537 6.82677L4.90625 6.82836C4.89735 6.65175 4.91373 6.47377 4.96417 6.30398C5.03039 6.08109 5.15354 5.87828 5.30506 5.70316C5.33011 5.67421 5.35598 5.64598 5.38258 5.61846C5.42685 5.57267 5.47318 5.52886 5.52142 5.48725C5.55978 5.45418 5.59935 5.42242 5.6406 5.39303L5.64529 5.38973L5.71697 5.34058C5.72805 5.36739 5.73913 5.39413 5.75021 5.42088C5.75397 5.43024 5.75761 5.43959 5.76112 5.44901C5.78415 5.31191 5.82372 5.17779 5.88331 5.05192C5.98281 4.84174 6.1355 4.66018 6.31199 4.51021C6.34117 4.48544 6.37104 4.4615 6.40154 4.43833C6.45229 4.39986 6.50476 4.36365 6.55878 4.32991C6.60175 4.30305 6.64569 4.27774 6.69095 4.25495L6.6961 4.25248L6.77445 4.21489C6.78131 4.24301 6.78817 4.27113 6.79502 4.29926C6.80594 4.34576 6.81382 4.39304 6.82028 4.44031C6.82909 4.50487 6.83481 4.56987 6.83757 4.63497C6.83871 4.66189 6.83934 4.68874 6.83944 4.71566C6.84252 4.71444 6.8456 4.71318 6.84868 4.71191L6.85209 4.71059C6.88835 4.61978 6.93549 4.53349 6.99508 4.45583C7.01245 4.43321 7.03086 4.41136 7.05022 4.39039C7.16129 4.27025 7.30202 4.17994 7.45181 4.11566C7.52531 4.08412 7.60159 4.05814 7.67963 4.04042L7.6858 4.0391L7.77493 4.021C7.7743 4.05127 7.77368 4.08159 7.77306 4.11186C7.77193 4.14637 7.76885 4.18076 7.76455 4.215C7.75918 4.25781 7.75184 4.30036 7.74261 4.34246C7.70342 4.52132 7.6298 4.69568 7.51179 4.83712C7.43358 4.93084 7.33764 5.008 7.23262 5.06992L7.23115 5.0752C7.2559 5.07267 7.28068 5.07063 7.30548 5.06898C7.34391 5.06645 7.38238 5.06513 7.42089 5.06453C7.43658 5.06442 7.43654 5.06442 7.45226 5.06442C7.5079 5.06486 7.56352 5.06695 7.61888 5.07267L7.62456 5.07333L7.71078 5.0839C7.70078 5.11312 7.69099 5.14235 7.68073 5.17146C7.66341 5.21907 7.64337 5.26568 7.62175 5.31147C7.59596 5.36607 7.56778 5.41956 7.53739 5.47173C7.5183 5.50454 7.49833 5.53679 7.47747 5.56849C7.34821 5.76496 7.1837 5.94124 6.98345 6.06656C6.90971 6.11268 6.83187 6.15142 6.75129 6.18351C6.74391 6.21637 6.73525 6.24895 6.72593 6.28125C6.70788 6.34383 6.68684 6.40563 6.66303 6.46628C6.64918 6.50162 6.63437 6.53656 6.6186 6.57107C6.51699 6.79342 6.3743 7.00002 6.1851 7.15676C6.11847 7.21196 6.04688 7.26061 5.97174 7.3031C5.97129 7.31268 5.97077 7.3222 5.97018 7.33172C5.96621 7.39677 5.95914 7.46166 5.94913 7.52605C5.94331 7.56353 5.93648 7.60084 5.92861 7.63794C5.87791 7.87712 5.78368 8.10981 5.6332 8.30403C5.57346 8.38108 5.50574 8.45142 5.43221 8.51515C5.43741 8.5479 5.44137 8.58081 5.44465 8.61372C5.4511 8.67855 5.45446 8.74371 5.45485 8.80887C5.45508 8.84679 5.45429 8.88477 5.45244 8.92263C5.44055 9.16683 5.38467 9.41157 5.26712 9.62726C5.21719 9.71889 5.15701 9.8043 5.08922 9.88339L5.11273 9.9338C5.13253 9.97728 5.14949 10.0221 5.16507 10.0672C5.18633 10.1288 5.20464 10.1914 5.22007 10.2548C5.22905 10.2916 5.23705 10.3287 5.244 10.366C5.28881 10.6063 5.29097 10.8574 5.22639 11.0944C5.19823 11.1978 5.15804 11.2973 5.10858 11.392L5.13643 11.4331C5.16286 11.4729 5.18672 11.5145 5.20926 11.5566C5.24001 11.614 5.26803 11.6729 5.2933 11.733C5.30802 11.768 5.3218 11.8034 5.33458 11.8391C5.41694 12.0692 5.45888 12.3168 5.43271 12.561C5.40893 12.7828 5.331 12.9963 5.22235 13.1903C5.20365 13.2236 5.18399 13.2565 5.16346 13.2888L5.16007 13.2941C5.1693 13.3029 5.17844 13.3118 5.18751 13.3208C5.19343 13.3069 5.1995 13.2931 5.20572 13.2794C5.23197 13.2214 5.26083 13.1645 5.29224 13.1091C5.31722 13.0651 5.34377 13.0218 5.3727 12.9802L5.37601 12.9756L5.42694 12.9052C5.44639 12.9266 5.46584 12.9481 5.48529 12.9696C5.51707 13.0052 5.54653 13.043 5.57477 13.0815C5.6133 13.1341 5.64932 13.1885 5.6828 13.2444C5.70228 13.2769 5.7209 13.31 5.73857 13.3436C5.85249 13.5599 5.92879 13.7991 5.93721 14.0446C5.93939 14.1084 5.9371 14.172 5.93083 14.2354L5.93645 14.2218C5.96035 14.2381 5.98425 14.2545 6.00815 14.2708C6.04735 14.2981 6.08478 14.3281 6.1212 14.3589C6.17089 14.4012 6.21858 14.4457 6.26413 14.4923C6.29065 14.5194 6.31644 14.5473 6.34143 14.5758C6.5025 14.7598 6.6323 14.9747 6.69755 15.2115C6.70961 15.2553 6.71946 15.2995 6.72723 15.3441C6.766 15.3602 6.80394 15.3784 6.8413 15.3975C6.89933 15.4271 6.95595 15.4595 7.01097 15.4945C7.04299 15.5148 7.07448 15.536 7.10535 15.5581C7.3005 15.6975 7.47327 15.8728 7.59095 16.083C7.61535 16.1266 7.63727 16.1714 7.65686 16.2172C7.68569 16.2256 7.71426 16.235 7.74259 16.2448C7.80416 16.2663 7.8647 16.2906 7.924 16.3177C7.95852 16.3335 7.99262 16.3501 8.02623 16.3678C8.24277 16.4813 8.4414 16.635 8.58762 16.8324C8.7226 17.0146 8.81063 17.2283 8.86177 17.4483C8.87036 17.4852 8.8779 17.5224 8.88446 17.5598C8.88732 17.5759 8.88991 17.592 8.89238 17.6081L8.89717 17.6064C9.72923 17.307 10.5547 17.1753 11.7856 17.1735C11.8448 17.1713 11.9041 17.1698 11.9634 17.1691L12.0078 17.1698C12.0523 17.1706 12.0967 17.1719 12.1412 17.1735C13.5209 17.1755 14.3913 17.3407 15.3325 17.7224C15.3212 17.6843 15.3116 17.6457 15.3037 17.607C15.2675 17.4324 15.2634 17.2486 15.3105 17.0758C15.3576 16.9029 15.4546 16.7466 15.5743 16.6146C15.6279 16.5555 15.6863 16.5003 15.7497 16.4518L15.7547 16.4481L15.8282 16.3945C15.8403 16.4223 15.8523 16.4502 15.8644 16.478C15.8776 16.5097 15.8891 16.5422 15.8995 16.5751C15.9124 16.6161 15.9234 16.6577 15.9325 16.6998C15.9474 16.7686 15.9574 16.839 15.9613 16.9097C15.9834 16.8972 16.006 16.8855 16.0289 16.8743C15.9957 16.7045 15.9931 16.5264 16.0389 16.3586C16.086 16.1857 16.183 16.0295 16.3027 15.8975C16.3563 15.8384 16.4147 15.7832 16.4781 15.7347L16.4831 15.731L16.5566 15.6774C16.5686 15.7052 16.5807 15.733 16.5928 15.7609C16.6061 15.7926 16.6176 15.8251 16.6279 15.8579C16.6408 15.899 16.6518 15.9406 16.6609 15.9827C16.6758 16.0515 16.6858 16.1219 16.6896 16.1926C16.6931 16.1906 16.6965 16.1888 16.6999 16.1868C16.67 16.0224 16.6691 15.8508 16.7133 15.6889C16.7604 15.516 16.8574 15.3598 16.9771 15.2277C17.0307 15.1686 17.089 15.1134 17.1525 15.065L17.1575 15.0613L17.231 15.0077C17.2431 15.0355 17.2551 15.0633 17.2671 15.0911C17.2716 15.1017 17.2758 15.1123 17.2799 15.1231C17.2828 15.09 17.2874 15.057 17.2938 15.0243C17.3283 14.8485 17.4136 14.6856 17.5234 14.5452C17.5726 14.4824 17.6268 14.4231 17.6865 14.3702L17.6913 14.366L17.7606 14.3073C17.7747 14.3342 17.7888 14.361 17.8028 14.3879C17.8065 14.3953 17.8102 14.4028 17.8137 14.4102C17.8131 14.3866 17.8133 14.3629 17.8144 14.3392C17.823 14.1602 17.8838 13.9867 17.9721 13.8319C18.0115 13.7626 18.0566 13.696 18.108 13.6351L18.1121 13.6303L18.1723 13.5621C18.1901 13.5866 18.2079 13.6112 18.2256 13.6357C18.2455 13.6638 18.2637 13.6931 18.281 13.7228C18.3024 13.7601 18.3222 13.7984 18.3402 13.8374C18.3697 13.9014 18.3947 13.968 18.4138 14.0362C18.4266 14.0247 18.4396 14.0135 18.4528 14.0026C18.3639 13.8665 18.298 13.7137 18.2749 13.5522C18.2494 13.3748 18.2762 13.1929 18.3336 13.0242C18.3593 12.9487 18.3909 12.8748 18.4298 12.8051L18.433 12.7997L18.4792 12.7213C18.5012 12.7421 18.5234 12.7628 18.5454 12.7835C18.5703 12.8074 18.5937 12.8326 18.6162 12.8587C18.6444 12.8912 18.671 12.925 18.6961 12.9599C18.7372 13.0172 18.7743 13.0779 18.806 13.1412L18.807 13.1399C18.8117 13.1337 18.8166 13.1275 18.8215 13.1213L18.8232 13.1191C18.7155 12.9938 18.629 12.8482 18.585 12.6883C18.5376 12.5156 18.5415 12.3317 18.5773 12.1571C18.5933 12.079 18.6155 12.0018 18.6454 11.9278L18.6478 11.922L18.6838 11.8385C18.7083 11.8564 18.7328 11.8741 18.7574 11.8919C18.785 11.9125 18.8115 11.9346 18.8371 11.9576C18.869 11.9864 18.8997 12.0166 18.9289 12.0482C18.9408 12.061 18.9613 12.0842 18.9599 12.0827C18.9077 12.0179 18.8627 11.9476 18.8277 11.8718C18.7527 11.7091 18.7264 11.5271 18.7332 11.349C18.7362 11.2693 18.7454 11.1895 18.7628 11.1116L18.7643 11.1055L18.7861 11.0173C18.8132 11.0308 18.8404 11.0444 18.8674 11.0579C18.8952 11.0722 18.9222 11.088 18.9487 11.1046C18.933 11.0849 18.9181 11.0647 18.9041 11.0438C18.8039 10.8952 18.7489 10.7197 18.727 10.5429C18.7172 10.4637 18.7136 10.3834 18.7183 10.3038L18.7187 10.2975L18.7261 10.2069C18.7551 10.216 18.784 10.225 18.8129 10.234C18.8457 10.2447 18.8778 10.2572 18.9094 10.2708C18.9489 10.2879 18.9876 10.3068 19.0254 10.3273C19.0874 10.361 19.1472 10.3994 19.2033 10.4427C19.2053 10.4326 19.2075 10.4226 19.2098 10.4126C19.0906 10.3477 18.9813 10.2641 18.894 10.1599C18.779 10.0225 18.7061 9.85362 18.6661 9.68003C18.6482 9.60232 18.6362 9.52285 18.6326 9.44316L18.6324 9.43689L18.6304 9.34597C18.6602 9.35197 18.6899 9.35797 18.7196 9.36396C18.7467 9.3698 18.7736 9.37684 18.8002 9.38477C18.7933 9.37866 18.7865 9.37244 18.7798 9.36611C18.6494 9.24311 18.5573 9.08394 18.4972 8.91625C18.4702 8.84118 18.449 8.76369 18.4362 8.68493L18.4352 8.67872L18.4226 8.58862C18.4528 8.59115 18.483 8.59363 18.5132 8.59611C18.5475 8.5993 18.5816 8.60447 18.6154 8.61086C18.6226 8.61218 18.6297 8.61361 18.6368 8.61504C18.6253 8.60744 18.6139 8.59958 18.6028 8.59143C18.4577 8.48604 18.346 8.33997 18.265 8.18125C18.2287 8.1102 18.1978 8.03607 18.1749 7.95957L18.1492 7.86584C18.1816 7.86435 18.214 7.86254 18.2463 7.86144C18.2589 7.86116 18.2714 7.86105 18.2839 7.86116C18.2969 7.86138 18.3098 7.86171 18.3228 7.86226C18.3121 7.85786 18.3016 7.85329 18.291 7.8485C18.1282 7.77382 17.9898 7.65269 17.8789 7.51312C17.8293 7.45071 17.7844 7.38411 17.7469 7.31367L17.744 7.30805L17.7032 7.22688C17.7346 7.21901 17.766 7.21081 17.7975 7.20332C17.8331 7.19529 17.8978 7.18153 17.8978 7.18153C17.8739 7.17316 17.8503 7.16375 17.8272 7.15346C17.6752 7.08571 17.5429 6.97861 17.4335 6.85428C17.3808 6.79446 17.3325 6.73023 17.2915 6.66183L17.2883 6.65638L17.2434 6.57735C17.2744 6.56788 17.3052 6.55814 17.3363 6.54906C17.3491 6.54548 17.3618 6.54218 17.3747 6.5391C17.2176 6.46915 17.082 6.35676 16.9711 6.22649C16.9194 6.16573 16.8722 6.10074 16.8323 6.03161L16.8293 6.02611L16.7857 5.94636C16.8051 5.94075 16.8246 5.93508 16.8441 5.92947L16.8551 5.92633C16.6941 5.85247 16.5568 5.73337 16.4463 5.59606C16.3963 5.53393 16.3509 5.46761 16.313 5.39738L16.31 5.39182L16.2687 5.31087C16.2751 5.30921 16.2727 5.30982 16.2776 5.30855C16.1567 5.24603 16.0485 5.1593 15.9553 5.06045C15.9006 5.00245 15.8502 4.93987 15.8068 4.87289L15.8035 4.86755L15.7559 4.79012C15.7865 4.77961 15.8171 4.76882 15.8478 4.75869C15.8958 4.7435 15.9447 4.73162 15.9942 4.72226C16.0693 4.70806 16.1455 4.69991 16.222 4.69799C16.2354 4.69771 16.2487 4.69766 16.2621 4.69771C16.2681 4.69782 16.2741 4.69793 16.2801 4.6981C16.2534 4.64053 16.2312 4.58087 16.213 4.52033C16.1901 4.44394 16.173 4.36546 16.1643 4.28616L16.1636 4.27988L16.1558 4.18935C16.1858 4.19337 16.2159 4.19744 16.2459 4.20146C16.28 4.20652 16.3138 4.21345 16.3472 4.2216C16.389 4.23178 16.4303 4.24389 16.471 4.25776C16.5535 4.28599 16.6341 4.32188 16.7096 4.36612C16.7117 4.28082 16.7232 4.19562 16.7419 4.11268C16.7595 4.03486 16.7831 3.95809 16.8144 3.88473L16.8546 3.79618C16.8788 3.81445 16.903 3.83277 16.9271 3.85105C16.9543 3.87212 16.9803 3.89474 17.0055 3.91824C17.0369 3.94763 17.067 3.97845 17.0956 4.01054C17.2213 4.15159 17.3217 4.31973 17.3646 4.50498C17.3672 4.51599 17.3748 4.53145 17.3748 4.53145ZM8.19675 17.894C8.02827 17.8435 7.86687 17.7689 7.72443 17.6653C7.55982 17.5457 7.42431 17.3901 7.31621 17.2182C7.19751 17.2265 7.07969 17.246 6.9645 17.2756L6.9606 17.2767C7.01341 17.3497 7.0718 17.4187 7.13435 17.4836C7.15755 17.5077 7.18138 17.5311 7.20582 17.5539C7.35951 17.6974 7.53912 17.8164 7.73943 17.8833C7.8486 17.9198 7.96248 17.9408 8.0772 17.9492C8.06797 17.9535 8.14803 17.9161 8.19675 17.894ZM15.6803 17.8612C15.7106 17.8672 15.741 17.872 15.7717 17.8758C15.9269 17.8951 16.0883 17.8862 16.2358 17.8311C16.3597 17.7847 16.4708 17.7083 16.5666 17.6179C16.5877 17.598 16.6081 17.5773 16.6278 17.556C16.6488 17.5333 16.6689 17.5097 16.6883 17.4856L16.6887 17.485C16.6622 17.4783 16.6354 17.4727 16.6084 17.4678C16.5397 17.4553 16.47 17.4484 16.4001 17.4476C16.3952 17.4476 16.3904 17.4476 16.3855 17.4476C16.3369 17.448 16.2883 17.4515 16.2403 17.4587C16.2144 17.4959 16.186 17.5313 16.1549 17.5645C16.037 17.6908 15.8856 17.7825 15.7253 17.8446C15.7113 17.85 15.6972 17.8552 15.6831 17.8602L15.6803 17.8612ZM8.66612 17.6936C8.61145 17.5727 8.54501 17.457 8.46568 17.3505C8.38684 17.2448 8.29502 17.1482 8.18981 17.0683C8.06814 16.976 7.92954 16.9077 7.78482 16.8598C7.71032 16.8351 7.63409 16.8157 7.55701 16.801C7.45691 16.7819 7.35537 16.7708 7.25353 16.7673L7.24953 16.7672C7.24997 16.7685 7.25042 16.7697 7.25086 16.771C7.28441 16.8637 7.32469 16.9538 7.37168 17.0405C7.40885 17.1091 7.45016 17.1754 7.49591 17.2386C7.58505 17.3617 7.69148 17.4731 7.81559 17.5614C7.92974 17.6426 8.0574 17.7037 8.1902 17.7477C8.25929 17.7705 8.32981 17.789 8.40116 17.8033L8.41817 17.7959C8.44079 17.7862 8.46331 17.7766 8.48583 17.7672C8.39923 17.7087 8.3145 17.6473 8.23033 17.5854C8.13531 17.5138 8.04099 17.4411 7.94938 17.3646C7.8575 17.2884 7.76733 17.2097 7.68189 17.1243L7.68227 17.1237C7.79265 17.173 7.89824 17.2293 8.00218 17.288C8.10641 17.3463 8.20787 17.4085 8.30861 17.4718C8.40859 17.5362 8.50801 17.6015 8.60468 17.6706C8.61889 17.6807 8.63309 17.6909 8.64729 17.7011L8.65891 17.6965L8.66612 17.6936ZM15.6837 17.7131C15.6888 17.7111 15.6938 17.7091 15.6988 17.707C15.8435 17.6476 15.9798 17.5607 16.0812 17.4403C16.1664 17.3391 16.2257 17.218 16.2647 17.0922C16.2733 17.0645 16.2809 17.0365 16.2877 17.0082C16.2948 16.9781 16.3007 16.9478 16.3058 16.9173L16.3059 16.9165C16.3057 16.9166 16.3054 16.9167 16.3052 16.9167C16.2754 16.9251 16.2459 16.9343 16.2167 16.9447C16.1893 16.9544 16.1623 16.965 16.1357 16.9767C16.0075 17.0325 15.8869 17.1103 15.7932 17.215C15.6994 17.3196 15.6352 17.4479 15.5937 17.5814C15.5922 17.5863 15.5907 17.5913 15.5892 17.5962C15.6279 17.5508 15.6682 17.5068 15.709 17.4632C15.764 17.4064 15.82 17.3503 15.8797 17.2974C15.939 17.2441 16.0005 17.1928 16.0684 17.1469L16.0689 17.1474C16.0345 17.2217 15.9937 17.2907 15.9506 17.3576C15.9077 17.425 15.8614 17.4892 15.814 17.5526C15.7718 17.6072 15.729 17.6612 15.6837 17.7131ZM15.8252 16.9992C15.8269 16.9295 15.8212 16.8597 15.8099 16.7911C15.8051 16.7625 15.7994 16.734 15.7927 16.7058C15.7856 16.6757 15.7773 16.6458 15.7682 16.6163L15.7679 16.6156C15.7677 16.6157 15.7676 16.6159 15.7674 16.6161C15.7445 16.6369 15.7222 16.6584 15.7008 16.6807C15.6807 16.7016 15.6613 16.7233 15.6427 16.7455C15.5531 16.8528 15.4802 16.9764 15.4433 17.1119C15.4063 17.2474 15.4063 17.3909 15.4291 17.5289C15.4333 17.5543 15.4447 17.6023 15.4447 17.6023C15.4453 17.5999 15.446 17.5975 15.4466 17.595C15.4925 17.4229 15.5711 17.2566 15.6907 17.1232C15.7309 17.0783 15.7752 17.0377 15.8227 17.001L15.8252 16.9992ZM8.73824 17.5275C8.7198 17.4374 8.69486 17.3486 8.66276 17.2624C8.61674 17.1388 8.55563 17.0204 8.47702 16.9143C8.38613 16.7916 8.27222 16.6872 8.14671 16.6007C8.07938 16.5542 8.00865 16.5128 7.93564 16.4759C7.84761 16.4315 7.75625 16.3939 7.66259 16.3631L7.65877 16.3619C7.65884 16.3632 7.65891 16.3646 7.65899 16.3659C7.66523 16.4642 7.67863 16.5621 7.69946 16.6584C7.702 16.6702 7.70466 16.682 7.70743 16.6937C7.87896 16.7379 8.04476 16.8058 8.19328 16.9026C8.22829 16.9254 8.26221 16.9499 8.29496 16.9758C8.38838 17.0497 8.47195 17.1355 8.54578 17.2289C8.61927 17.3219 8.68324 17.4224 8.73824 17.5275ZM16.4087 17.1441C16.4389 17.1501 16.4694 17.1549 16.5 17.1587C16.6552 17.1779 16.8167 17.1691 16.9641 17.1139C17.0881 17.0676 17.1992 16.9912 17.2949 16.9008C17.316 16.8808 17.3365 16.8601 17.3562 16.8388C17.3771 16.8161 17.3972 16.7926 17.4166 16.7685L17.417 16.7679C17.3868 16.7603 17.3563 16.7539 17.3256 16.7486C17.2604 16.7374 17.1945 16.7313 17.1285 16.7305C17.1236 16.7305 17.1188 16.7305 17.1139 16.7305C17.0653 16.7309 17.0167 16.7343 16.9687 16.7415C16.9427 16.7788 16.9143 16.8141 16.8833 16.8474C16.7653 16.9736 16.6139 17.0654 16.4536 17.1275C16.4387 17.1333 16.4237 17.1388 16.4087 17.1441ZM6.9571 17.1356C6.99685 17.1258 7.08718 17.1081 7.09508 17.1067C6.92377 17.0321 6.76327 16.9318 6.62838 16.802C6.48174 16.661 6.36885 16.4882 6.28535 16.3032C6.25849 16.3014 6.23161 16.3002 6.20471 16.2994C6.18579 16.2989 6.16689 16.2987 6.14797 16.2988C6.07868 16.2992 6.00955 16.303 5.94065 16.3105L5.92908 16.3118L5.9251 16.3123C5.93147 16.3243 5.93803 16.3361 5.94463 16.3479C6.02939 16.4974 6.13233 16.6371 6.25429 16.7583C6.35082 16.8543 6.45963 16.9385 6.57983 17.0027C6.69811 17.066 6.82641 17.109 6.95776 17.1354L6.9571 17.1356ZM7.43276 16.6428C7.3569 16.4927 7.25883 16.3539 7.13506 16.2396C7.02968 16.1423 6.90775 16.064 6.77842 16.0025C6.62585 15.9299 6.46278 15.8798 6.29665 15.8499L6.28516 15.8479L6.28119 15.8473C6.28147 15.8485 6.28174 15.8499 6.28201 15.8512C6.30251 15.9476 6.33003 16.0425 6.36468 16.1347C6.39209 16.2078 6.42391 16.2791 6.46056 16.348C6.52999 16.4785 6.61711 16.6003 6.72381 16.7029C6.83053 16.8056 6.95554 16.888 7.08862 16.9524C7.12423 16.9696 7.16045 16.9856 7.19717 17.0003C7.17665 16.9568 7.15762 16.9126 7.14014 16.8677C7.12415 16.8267 7.09818 16.7481 7.09897 16.7506C7.0288 16.6802 6.95955 16.6088 6.89253 16.5349C6.81194 16.4469 6.73338 16.3566 6.66049 16.2602L6.66093 16.2597C6.76349 16.3237 6.86044 16.3939 6.95529 16.4663C7.02522 16.5192 7.09344 16.574 7.16086 16.6297C7.16987 16.6294 7.17888 16.6292 7.1879 16.6291C7.19653 16.629 7.20515 16.6289 7.21379 16.629C7.28694 16.6295 7.36008 16.6342 7.43276 16.6428ZM16.4329 16.9875C16.5755 16.9282 16.7095 16.842 16.8096 16.7232C16.8948 16.622 16.9541 16.5009 16.9931 16.3751C17.0017 16.3474 17.0094 16.3194 17.016 16.2911C17.0232 16.261 17.0292 16.2307 17.0342 16.2001L17.0343 16.1994C17.0341 16.1994 17.0338 16.1995 17.0336 16.1996C17.0038 16.2079 16.9743 16.2172 16.9451 16.2276C16.9177 16.2373 16.8907 16.2479 16.8641 16.2595C16.7359 16.3153 16.6153 16.3932 16.5216 16.4978C16.4519 16.5756 16.3985 16.6664 16.3587 16.7628L16.4337 16.7501L16.4373 16.7461C16.4924 16.6892 16.5484 16.6332 16.6081 16.5802C16.6674 16.527 16.7289 16.4757 16.7968 16.4298L16.7973 16.4302C16.7629 16.5046 16.722 16.5735 16.6789 16.6405C16.6361 16.7078 16.5898 16.7721 16.5424 16.8354C16.508 16.88 16.4731 16.9242 16.4368 16.9672C16.4356 16.974 16.4343 16.9807 16.4329 16.9875ZM16.1962 16.8061C16.2437 16.6599 16.3162 16.5207 16.4191 16.4059C16.46 16.3604 16.5052 16.3191 16.5536 16.282C16.5552 16.2124 16.5495 16.1425 16.5383 16.074C16.5335 16.0453 16.5278 16.0169 16.5211 15.9887C16.514 15.9585 16.5057 15.9287 16.4966 15.8992L16.4964 15.8985C16.4961 15.8986 16.496 15.8988 16.4958 15.899C16.4729 15.9198 16.4506 15.9412 16.4292 15.9636C16.4091 15.9845 16.3897 16.0062 16.3711 16.0284C16.2815 16.1357 16.2086 16.2593 16.1717 16.3948C16.1347 16.5303 16.1347 16.6738 16.1574 16.8117L16.1587 16.8193L16.1612 16.8184C16.1728 16.8141 16.1844 16.8101 16.1962 16.8061ZM7.51934 16.2463C7.50109 16.206 7.4808 16.1666 7.45833 16.1284C7.38357 16.0011 7.28602 15.8882 7.17599 15.7901C7.04702 15.6752 6.90085 15.5795 6.74581 15.5036L6.74219 15.5019C6.74208 15.5032 6.74198 15.5045 6.74187 15.5059C6.73429 15.6075 6.73438 15.7096 6.74255 15.8111C6.74325 15.8198 6.74401 15.8285 6.74484 15.8373C6.93873 15.9169 7.12034 16.0285 7.26875 16.1773C7.37804 16.2869 7.46782 16.4142 7.54011 16.5508L7.53857 16.5403C7.53323 16.5029 7.52889 16.4654 7.52559 16.4278C7.52115 16.3773 7.51934 16.2463 7.51934 16.2463ZM17.1036 16.4783C17.1271 16.4825 17.1508 16.4861 17.1744 16.489C17.3297 16.5082 17.4911 16.4993 17.6386 16.4442C17.7625 16.3979 17.8736 16.3215 17.9694 16.231C17.9905 16.2111 18.0109 16.1904 18.0305 16.1691C18.0516 16.1464 18.0717 16.1229 18.091 16.0987L18.0915 16.0982C18.0613 16.0905 18.0307 16.0843 17.9999 16.0789C17.9348 16.0677 17.869 16.0615 17.8028 16.0608C17.798 16.0608 17.7932 16.0608 17.7883 16.0608C17.7397 16.0611 17.6911 16.0646 17.6431 16.0718C17.6172 16.109 17.5888 16.1444 17.5577 16.1777C17.4397 16.3039 17.2883 16.3956 17.128 16.4578C17.1214 16.4603 17.1149 16.4628 17.1082 16.4653C17.1067 16.4696 17.1051 16.4739 17.1036 16.4783ZM17.1526 16.0346C17.1946 15.9921 17.2375 15.9504 17.2824 15.9105C17.3417 15.8572 17.4033 15.8059 17.4712 15.76L17.4717 15.7605C17.4373 15.8348 17.3964 15.9038 17.3533 15.9708C17.3105 16.0381 17.2642 16.1024 17.2168 16.1657C17.2011 16.186 17.1853 16.2063 17.1694 16.2264C17.1655 16.2498 17.1611 16.2731 17.156 16.2963C17.2802 16.2382 17.3954 16.1587 17.484 16.0534C17.5692 15.9523 17.6284 15.8312 17.6675 15.7054C17.6761 15.6777 17.6838 15.6496 17.6904 15.6214C17.6976 15.5913 17.7035 15.5609 17.7086 15.5304L17.7087 15.5297C17.7084 15.5297 17.7082 15.5298 17.708 15.5299C17.6782 15.5382 17.6487 15.5474 17.6195 15.5578C17.5921 15.5676 17.5651 15.5782 17.5385 15.5898C17.4103 15.6456 17.2898 15.7235 17.196 15.8281C17.136 15.8951 17.088 15.9718 17.0503 16.0534L17.0547 16.0524C17.0669 16.0497 17.1526 16.0346 17.1526 16.0346ZM6.0938 16.1621C5.8968 16.036 5.71941 15.8747 5.59201 15.6774C5.48161 15.5064 5.41131 15.3123 5.37245 15.113C5.26249 15.0791 5.14929 15.0555 5.03526 15.0414L5.02368 15.04L5.01969 15.0396C5.02003 15.0408 5.02037 15.0422 5.02071 15.0434C5.04643 15.1386 5.07909 15.2318 5.11871 15.3221C5.15005 15.3935 5.18572 15.4631 5.22605 15.5298C5.30249 15.6564 5.39611 15.7732 5.50824 15.8699C5.61749 15.9642 5.74311 16.0382 5.87563 16.0948C5.93755 16.1212 6.06873 16.163 6.06873 16.163C6.07708 16.1626 6.08544 16.1624 6.0938 16.1621ZM16.8814 16.1043C16.9288 15.9698 16.9982 15.8426 17.0935 15.7363C17.1344 15.6907 17.1796 15.6494 17.2279 15.6123C17.2297 15.5427 17.2239 15.4728 17.2126 15.4043C17.2079 15.3756 17.2022 15.3472 17.1955 15.3189C17.1884 15.2888 17.1801 15.259 17.171 15.2294L17.1707 15.2287C17.1705 15.2289 17.1704 15.2291 17.1702 15.2292C17.1473 15.25 17.125 15.2715 17.1036 15.2938C17.0835 15.3148 17.0641 15.3364 17.0455 15.3587C16.9559 15.4659 16.883 15.5896 16.846 15.7251C16.8106 15.855 16.8092 15.9922 16.8291 16.1249L16.8341 16.1228C16.8432 16.119 16.8524 16.1153 16.8616 16.1118C16.8682 16.1092 16.8748 16.1067 16.8814 16.1043ZM6.41786 15.7341C6.4116 15.7062 6.40464 15.6784 6.39697 15.6509C6.36159 15.5238 6.31074 15.4007 6.24138 15.2882C6.16119 15.1582 6.05652 15.0446 5.93881 14.9477C5.87568 14.8958 5.80872 14.8484 5.73909 14.8056C5.65513 14.7538 5.56729 14.7086 5.47657 14.67L5.47288 14.6685C5.47285 14.6698 5.47281 14.6711 5.47277 14.6724C5.47064 14.771 5.47571 14.8696 5.48829 14.9674C5.49824 15.0447 5.51286 15.1216 5.53275 15.197C5.57149 15.3439 5.63059 15.4862 5.71452 15.6133C5.79381 15.7333 5.89402 15.8386 6.00555 15.9292C6.06565 15.9779 6.1935 16.0586 6.1935 16.0586C6.1807 16.0167 6.1692 15.9745 6.15905 15.9319C6.1538 15.9098 6.14889 15.8877 6.14443 15.8655C6.12709 15.8387 6.10988 15.8119 6.09274 15.7851C6.02993 15.6841 5.96816 15.5823 5.91035 15.4779C5.85211 15.3737 5.79634 15.2679 5.74745 15.1573L5.74801 15.157C5.83317 15.2428 5.9114 15.3333 5.98715 15.4255C6.06079 15.5144 6.13077 15.6057 6.19958 15.6977L6.11875 15.6908L6.20532 15.6982C6.25287 15.7027 6.30018 15.7103 6.34707 15.7193C6.37075 15.7238 6.39435 15.7287 6.41786 15.7341ZM17.7979 15.7495C17.7947 15.7599 17.7913 15.7703 17.7878 15.7807L17.7855 15.7872C17.7943 15.7879 17.8031 15.7884 17.8119 15.7888C17.9681 15.7967 18.1284 15.7762 18.2715 15.7105C18.3917 15.6553 18.497 15.571 18.586 15.4739C18.6056 15.4524 18.6244 15.4304 18.6425 15.4076C18.6618 15.3835 18.6801 15.3586 18.6977 15.3331L18.6981 15.3325C18.6344 15.3212 18.5699 15.3156 18.5053 15.314C18.4939 15.3139 18.4826 15.3138 18.4712 15.3139C18.3966 15.3147 18.3218 15.3223 18.2489 15.3387C18.2258 15.3777 18.2 15.4151 18.1715 15.4505C18.0716 15.5744 17.9413 15.6711 17.7999 15.7431L17.7979 15.7495ZM6.60616 15.4768C6.59893 15.3995 6.58549 15.3229 6.56486 15.248C6.52329 15.0971 6.45229 14.9556 6.36345 14.8271C6.31907 14.763 6.27024 14.7019 6.21794 14.644C6.15184 14.5709 6.08019 14.5029 6.00393 14.4404L6.0008 14.4379C6.00039 14.4392 5.99998 14.4405 5.99956 14.4417C5.9699 14.5357 5.94712 14.6318 5.93181 14.7292C5.92993 14.7411 5.92817 14.753 5.92652 14.7649C6.09697 14.887 6.24819 15.0371 6.35853 15.216C6.46348 15.3861 6.52997 15.5775 6.56641 15.7736C6.57854 15.7773 6.59065 15.7811 6.60272 15.7851C6.60178 15.77 6.601 15.7549 6.60039 15.7399C6.59779 15.6762 6.59804 15.6125 6.60122 15.5489C6.60243 15.5248 6.60403 15.5008 6.60616 15.4768ZM17.8566 15.4498C17.8542 15.4841 17.8499 15.5184 17.8445 15.5523L17.8433 15.5597C17.9377 15.4986 18.0228 15.4232 18.089 15.332C18.1666 15.2249 18.2169 15.0998 18.2467 14.9715C18.2533 14.9432 18.2589 14.9147 18.2635 14.8861C18.2684 14.8555 18.2722 14.8248 18.275 14.794L18.275 14.7933C18.2748 14.7934 18.2746 14.7934 18.2744 14.7936C18.2452 14.804 18.2165 14.8154 18.1881 14.8278C18.1616 14.8396 18.1354 14.8521 18.1097 14.8656C17.9858 14.9305 17.8712 15.017 17.7853 15.1281C17.7212 15.2111 17.6744 15.3062 17.6417 15.4057C17.6664 15.3982 17.6913 15.3915 17.7164 15.3856L17.7194 15.3818C17.7701 15.3211 17.822 15.2612 17.8777 15.2041C17.9328 15.1467 17.9905 15.091 18.0549 15.0403L18.0555 15.0407C18.0265 15.1174 17.9908 15.189 17.9526 15.2591C17.9231 15.3141 17.8912 15.3674 17.8582 15.4199L17.8566 15.4498ZM17.482 15.4643C17.5185 15.3132 17.5811 15.1673 17.6765 15.044C17.7133 14.9964 17.7546 14.9526 17.7993 14.9126L17.8015 14.9106C17.7982 14.841 17.7874 14.7717 17.7711 14.7042C17.7644 14.6759 17.7566 14.648 17.7479 14.6203C17.7386 14.5908 17.7282 14.5616 17.7169 14.5329L17.7166 14.5322C17.7164 14.5324 17.7163 14.5325 17.7161 14.5327C17.6948 14.5551 17.6741 14.5781 17.6544 14.602C17.6359 14.6243 17.6181 14.6473 17.6012 14.6709C17.5196 14.7844 17.4559 14.913 17.4289 15.0508C17.4019 15.1886 17.4123 15.3318 17.445 15.4677C17.446 15.4717 17.4469 15.4757 17.4479 15.4797C17.4592 15.4744 17.4706 15.4693 17.482 15.4643ZM12.733 13.9715C13.3424 14.1944 13.9942 14.2952 14.6504 14.2632C13.8797 14.5136 13.0909 14.5434 12.351 14.3876L12.3448 14.5401L11.9634 15.0651L11.5818 14.5401L11.5758 14.3876C10.8359 14.5434 10.047 14.5136 9.27626 14.2632C9.93248 14.2952 10.5843 14.1944 11.1938 13.9715C10.1957 13.4487 9.39302 12.55 9.01702 11.3937C8.45984 9.68042 8.98674 7.79985 10.3531 6.62484C8.86838 8.82131 9.40293 11.7877 11.5329 13.3337L11.3848 9.67271V6.7927C11.6155 6.68208 11.8147 6.51477 11.9634 6.30668C12.112 6.51477 12.3113 6.68208 12.5419 6.7927V9.67271L12.3939 13.3337C14.5238 11.7877 15.0584 8.82131 13.5737 6.62484C14.94 7.79985 15.4668 9.68042 14.9097 11.3937C14.5338 12.55 13.7311 13.4487 12.733 13.9715ZM18.3754 15.0249C18.3964 15.0239 18.4173 15.0224 18.4381 15.0204C18.5938 15.0056 18.7494 14.962 18.8815 14.8762C18.9924 14.8041 19.0843 14.7054 19.1582 14.5964C19.1745 14.5724 19.1899 14.5478 19.2046 14.5227C19.2202 14.4959 19.2346 14.4686 19.2483 14.4409L19.2487 14.4402C19.2357 14.4398 19.2227 14.4398 19.2097 14.4398C19.1836 14.4401 19.1575 14.4409 19.1314 14.4426C19.0206 14.4499 18.9092 14.4713 18.8052 14.5114L18.8041 14.5142C18.7871 14.5552 18.7674 14.5951 18.7447 14.6335C18.657 14.7823 18.529 14.9046 18.386 15.0001L18.3806 15.0036C18.3789 15.0107 18.3772 15.0178 18.3754 15.0249ZM4.67122 13.6412C4.65939 13.6342 4.6475 13.6274 4.63553 13.6206C4.54376 13.5691 4.44782 13.5253 4.34903 13.4891L4.34526 13.4877C4.34528 13.489 4.34532 13.4904 4.34535 13.4917C4.34825 13.5902 4.35834 13.6884 4.37589 13.7855C4.38978 13.8622 4.4083 13.9381 4.43201 14.0124C4.47694 14.1533 4.54083 14.2887 4.62741 14.4088C4.71178 14.5258 4.81672 14.6271 4.93248 14.7128C5.0016 14.764 5.07457 14.81 5.15034 14.8508C5.14155 14.8419 5.13285 14.833 5.12422 14.824C4.96411 14.6566 4.83093 14.4603 4.75364 14.2409C4.686 14.049 4.66271 13.844 4.67122 13.6412ZM5.5419 14.5482C5.55118 14.3551 5.52965 14.1597 5.46336 13.9777C5.41286 13.839 5.33732 13.7102 5.24683 13.5939C5.14075 13.4576 5.01428 13.337 4.87551 13.2343L4.87227 13.232C4.87192 13.2333 4.87157 13.2346 4.87123 13.2358C4.84625 13.3312 4.82824 13.4283 4.81775 13.5264C4.80945 13.6039 4.80581 13.6819 4.80763 13.7599C4.81106 13.9077 4.83423 14.0556 4.88344 14.1952C4.93267 14.3349 5.00735 14.4646 5.09734 14.5819C5.14283 14.6412 5.19226 14.6974 5.24474 14.7505C5.2749 14.7811 5.30607 14.8106 5.33818 14.839L5.33767 14.8303C5.33703 14.8183 5.33586 14.7894 5.33586 14.7894C5.2927 14.6815 5.25369 14.5719 5.21563 14.4621C5.17798 14.3492 5.14159 14.2359 5.1096 14.1209C5.07718 14.0061 5.04756 13.8902 5.0257 13.7713L5.02631 13.771C5.08923 13.8742 5.14428 13.9805 5.19653 14.0877C5.24927 14.1948 5.29755 14.3036 5.34462 14.4129C5.35492 14.4376 5.36517 14.4623 5.37533 14.4871L5.43315 14.506C5.46999 14.5184 5.5062 14.5328 5.5419 14.5482ZM18.4167 14.7029C18.4169 14.7374 18.4151 14.7718 18.4121 14.8061L18.4118 14.8096C18.5065 14.7312 18.5888 14.6374 18.6459 14.5282C18.7071 14.411 18.7387 14.2799 18.7496 14.1486C18.752 14.1196 18.7534 14.0906 18.7538 14.0616C18.7543 14.0307 18.7535 13.9998 18.7518 13.9689L18.7517 13.9682C18.7515 13.9683 18.7513 13.9684 18.7511 13.9685C18.7238 13.9831 18.6969 13.9985 18.6707 14.015C18.6461 14.0304 18.6221 14.0467 18.5986 14.0637C18.4855 14.146 18.3847 14.2481 18.3159 14.3705C18.2639 14.4629 18.2313 14.5648 18.2134 14.6691C18.2346 14.6613 18.2564 14.6539 18.2779 14.6473L18.2874 14.6311C18.3288 14.5637 18.3714 14.4969 18.4182 14.4323C18.4645 14.3675 18.5135 14.304 18.5698 14.2445L18.5704 14.2448C18.5529 14.3249 18.5279 14.401 18.5004 14.4758C18.4752 14.5455 18.4464 14.6132 18.4163 14.6802L18.4167 14.7029ZM18.0659 14.7334C18.0812 14.5833 18.1218 14.4349 18.1959 14.3031C18.2259 14.2498 18.2611 14.1997 18.3004 14.1529C18.2869 14.0846 18.2662 14.0176 18.2403 13.9532C18.2294 13.9263 18.2177 13.8997 18.2051 13.8736C18.1916 13.8457 18.177 13.8184 18.1617 13.7916L18.1613 13.7909C18.1612 13.7911 18.161 13.7913 18.1609 13.7915C18.143 13.8168 18.1259 13.8426 18.1099 13.869C18.0948 13.8938 18.0806 13.9191 18.0672 13.9449C18.003 14.069 17.9586 14.2055 17.9519 14.3458C17.9452 14.4852 17.9759 14.6245 18.0275 14.7535C18.0397 14.7468 18.0521 14.7404 18.0645 14.7341L18.0659 14.7334ZM5.69821 14.6236C5.7204 14.5639 5.73948 14.5031 5.75505 14.4414C5.78833 14.3094 5.80523 14.1729 5.79917 14.0368C5.79255 13.8884 5.75838 13.7422 5.70564 13.6037C5.64288 13.4388 5.55454 13.2838 5.44883 13.1428L5.44178 13.1335L5.43932 13.1303C5.43862 13.1315 5.43793 13.1326 5.43723 13.1338C5.38653 13.2183 5.34204 13.3065 5.30451 13.3976C5.29992 13.4088 5.29544 13.42 5.29106 13.4312C5.4285 13.5894 5.54067 13.7707 5.60643 13.9702C5.67431 14.1762 5.69231 14.3961 5.67579 14.6117C5.67289 14.6102 5.68788 14.618 5.69821 14.6236ZM18.9265 14.126C18.9567 14.1194 18.9866 14.1117 19.0162 14.1031C19.1663 14.059 19.3108 13.9867 19.4242 13.8775C19.5195 13.7857 19.5911 13.6715 19.6431 13.5504C19.6545 13.5238 19.665 13.4967 19.6746 13.4693C19.6849 13.4401 19.6939 13.4105 19.7021 13.3807L19.7023 13.38C19.702 13.38 19.7018 13.3801 19.7016 13.3801C19.671 13.3853 19.6407 13.3914 19.6106 13.3987C19.5824 13.4056 19.5544 13.4133 19.5267 13.4221C19.4408 13.4493 19.3569 13.486 19.2803 13.5339C19.2713 13.5783 19.2593 13.6222 19.244 13.6651C19.186 13.8278 19.0836 13.9721 18.9612 14.0928C18.9498 14.1041 18.9383 14.1151 18.9265 14.126ZM18.7752 13.8044C18.7816 13.786 18.7881 13.7676 18.7946 13.7493C18.8225 13.6753 18.8516 13.6016 18.8853 13.5293C18.9185 13.4569 18.9546 13.3854 18.9986 13.3162L18.9993 13.3165C18.9972 13.3984 18.9872 13.4779 18.9742 13.5565C18.9618 13.6352 18.9448 13.7126 18.9266 13.7896C18.9142 13.838 18.9015 13.8864 18.8874 13.9343C18.8881 13.9432 18.8887 13.9521 18.8892 13.9609C18.8894 13.9637 18.8895 13.9665 18.8897 13.9694C18.9955 13.8589 19.0828 13.7277 19.127 13.5804C19.165 13.4537 19.1712 13.319 19.157 13.188C19.1539 13.1592 19.1497 13.1304 19.1447 13.1019C19.1392 13.0714 19.1326 13.0412 19.1251 13.0112L19.125 13.0105C19.1248 13.0106 19.1246 13.0107 19.1244 13.0109C19.1004 13.0304 19.0769 13.0506 19.0543 13.0718C19.0331 13.0915 19.0125 13.1121 18.9927 13.1332C18.8973 13.2354 18.8176 13.3548 18.7731 13.4881C18.7371 13.5963 18.725 13.7112 18.7299 13.825C18.7445 13.818 18.7591 13.8113 18.774 13.8049L18.7797 13.8025L18.7752 13.8044ZM18.597 13.8987C18.5827 13.7462 18.594 13.5903 18.6426 13.4445C18.6619 13.3865 18.687 13.3307 18.7167 13.2773C18.6906 13.2128 18.6575 13.1509 18.6199 13.0925C18.6042 13.0681 18.5876 13.0443 18.5703 13.021C18.5518 12.9962 18.5323 12.9722 18.5121 12.9487L18.5117 12.9481C18.5116 12.9483 18.5115 12.9485 18.5114 12.9488C18.4986 12.977 18.4867 13.0056 18.476 13.0346C18.4658 13.0618 18.4566 13.0893 18.4484 13.1171C18.4089 13.2512 18.3911 13.3936 18.4111 13.5326C18.431 13.6715 18.488 13.803 18.5636 13.9204L18.5642 13.92C18.575 13.9128 18.586 13.9057 18.597 13.8987ZM7.56418 8.29187C6.5292 10.0816 7.14193 12.3711 8.93224 13.4058C8.92949 13.4025 8.92674 13.3986 8.92398 13.3948C7.29717 11.2319 7.73263 8.15978 9.89675 6.53348C8.91297 6.77949 8.07175 7.41405 7.56418 8.29187ZM15.0028 13.3948C15.0001 13.3986 14.9973 13.4025 14.9945 13.4058C16.7848 12.3711 17.3976 10.0816 16.3626 8.29187C15.855 7.41405 15.0138 6.77949 14.03 6.53348C16.1941 8.15978 16.6296 11.2319 15.0028 13.3948ZM4.87135 13.0648C4.89894 13.082 4.94783 13.1167 4.94571 13.1151C5.00368 12.8877 5.02148 12.6463 4.97032 12.4159C4.94005 12.2795 4.88659 12.149 4.81809 12.0276C4.73329 11.8772 4.62581 11.7397 4.50375 11.6178L4.49546 11.6096L4.49258 11.6068C4.49205 11.6081 4.49152 11.6093 4.491 11.6105C4.45286 11.7014 4.42139 11.7951 4.39722 11.8907C4.37811 11.9663 4.36353 12.043 4.35437 12.1205C4.33699 12.2673 4.33915 12.417 4.36825 12.5621C4.39735 12.7073 4.45305 12.8462 4.52566 12.975C4.56397 13.0429 4.60702 13.1082 4.65381 13.1706C4.67628 13.2006 4.69962 13.2299 4.72378 13.2585L4.72512 13.2528C4.7273 13.2435 4.72954 13.2343 4.73185 13.2251L4.73363 13.2181C4.70559 13.1038 4.68211 12.9884 4.65965 12.8729C4.63818 12.7559 4.61809 12.6386 4.60256 12.5203C4.5866 12.402 4.57361 12.2831 4.56871 12.1624L4.56931 12.1622C4.61704 12.2733 4.65668 12.3861 4.69329 12.4997C4.73045 12.6131 4.76298 12.7276 4.7942 12.8424C4.81207 12.9112 4.82958 12.98 4.84594 13.0491L4.87135 13.0648ZM4.23603 11.9836C4.14618 11.9118 4.04953 11.8483 3.94867 11.7933L3.9384 11.7878L3.93485 11.7859C3.93469 11.7873 3.93454 11.7886 3.93438 11.7899C3.92303 11.8911 3.91932 11.9932 3.92371 12.095C3.92693 12.1696 3.93447 12.244 3.94695 12.3177C3.97235 12.4676 4.01844 12.6145 4.09063 12.7487C4.15701 12.872 4.24444 12.9832 4.344 13.0815C4.40524 13.1419 4.47104 13.1976 4.54034 13.2487C4.53287 13.2386 4.5255 13.2286 4.51822 13.2184C4.38324 13.0303 4.279 12.8171 4.2333 12.5892C4.19331 12.3897 4.19911 12.1832 4.23603 11.9836ZM19.3035 13.1761C19.3325 13.1659 19.3612 13.1545 19.3894 13.1423C19.5329 13.0798 19.6673 12.99 19.7661 12.8675C19.8492 12.7646 19.9059 12.6423 19.9423 12.5156C19.9503 12.4878 19.9573 12.4596 19.9634 12.4312C19.9699 12.4009 19.9752 12.3705 19.9796 12.3399L19.9797 12.3391C19.9794 12.3392 19.9792 12.3392 19.979 12.3394C19.9494 12.3483 19.92 12.3582 19.8911 12.3692C19.864 12.3795 19.8372 12.3907 19.8108 12.4028C19.7289 12.4406 19.6503 12.4875 19.5803 12.5446C19.577 12.5898 19.5705 12.6348 19.5607 12.6793C19.5236 12.8479 19.4399 13.004 19.3336 13.139C19.3238 13.1516 19.3137 13.164 19.3035 13.1761ZM5.07251 13.1743C5.11997 13.0955 5.16176 13.0134 5.19657 12.9282C5.24807 12.8023 5.284 12.6695 5.29713 12.5339C5.31144 12.3861 5.29813 12.2365 5.2654 12.0919C5.22645 11.9199 5.16077 11.754 5.07595 11.5995L5.07028 11.5893L5.0683 11.5859C5.06745 11.5869 5.0666 11.5879 5.06575 11.5889C5.00368 11.6656 4.94722 11.7466 4.89723 11.8315C4.89113 11.8419 4.88512 11.8524 4.8792 11.8629C4.99304 12.0389 5.07862 12.2341 5.11567 12.4409C5.15564 12.6641 5.13953 12.8946 5.0876 13.1145C5.08287 13.1345 5.07784 13.1544 5.07251 13.1743ZM18.9463 12.9844C18.9144 12.8372 18.907 12.6838 18.9364 12.5356C18.9484 12.4756 18.9663 12.4171 18.9891 12.3605C18.955 12.2997 18.9146 12.2424 18.8699 12.1892C18.8513 12.1669 18.8318 12.1454 18.8117 12.1244C18.7903 12.1022 18.768 12.0807 18.745 12.0599L18.7445 12.0594C18.7444 12.0597 18.7443 12.0599 18.7442 12.0602C18.7351 12.0897 18.7269 12.1195 18.7198 12.1497C18.7132 12.1779 18.7075 12.2064 18.7028 12.2351C18.6803 12.373 18.6805 12.5165 18.7178 12.6519C18.7546 12.7861 18.8267 12.9086 18.9154 13.015C18.9208 13.0096 18.9262 13.0041 18.9317 12.9987C18.9365 12.9939 18.9414 12.9892 18.9463 12.9844ZM19.2645 13.0017C19.3472 12.8845 19.4103 12.7518 19.434 12.6099C19.4558 12.4794 19.4452 12.345 19.4147 12.2168C19.408 12.1886 19.4003 12.1606 19.3917 12.1329C19.3825 12.1034 19.3722 12.0742 19.3609 12.0454L19.3607 12.0447C19.3605 12.0449 19.3603 12.045 19.3602 12.0452C19.3387 12.0676 19.318 12.0905 19.2982 12.1143C19.2797 12.1366 19.2618 12.1595 19.2448 12.1831C19.1629 12.2963 19.0988 12.4247 19.0714 12.5625C19.0505 12.6673 19.0514 12.7753 19.0672 12.8809C19.0831 12.8689 19.0993 12.8572 19.1158 12.846L19.12 12.8432C19.1218 12.8351 19.1235 12.8271 19.1254 12.819C19.1438 12.7421 19.1635 12.6654 19.1879 12.5894C19.2117 12.5134 19.2386 12.4379 19.2737 12.3638L19.2743 12.364C19.2825 12.4455 19.2825 12.5257 19.2796 12.6052C19.277 12.6849 19.2698 12.7638 19.2614 12.8425C19.2573 12.8749 19.2531 12.9073 19.2484 12.9396C19.252 12.9521 19.2553 12.9647 19.2585 12.9773C19.2606 12.9854 19.2625 12.9935 19.2645 13.0017ZM19.6163 12.2356C19.6432 12.2207 19.6697 12.2048 19.6956 12.1881C19.8268 12.103 19.9448 11.9924 20.0222 11.8554C20.0873 11.7402 20.1232 11.6103 20.1384 11.4795C20.1418 11.4506 20.1441 11.4217 20.1455 11.3927C20.147 11.3618 20.1472 11.3309 20.1465 11.3V11.2992C20.1463 11.2993 20.1461 11.2994 20.1459 11.2995C20.1181 11.3132 20.0907 11.3277 20.064 11.3433C20.0389 11.358 20.0143 11.3734 19.9903 11.3897C19.9157 11.4403 19.8458 11.4993 19.7861 11.5672C19.7902 11.6123 19.7912 11.6578 19.7888 11.7033C19.7797 11.8758 19.7227 12.0433 19.64 12.194C19.6323 12.208 19.6243 12.2219 19.6163 12.2356ZM18.9893 12.1176C19.0145 12.1487 19.0384 12.1809 19.0606 12.2142C19.0633 12.2096 19.066 12.205 19.0688 12.2004C19.041 12.174 19.0144 12.1464 18.9893 12.1176ZM19.3882 11.8344C19.3927 11.7815 19.3984 11.7285 19.4062 11.6756C19.4174 11.5967 19.4315 11.5178 19.454 11.439H19.4547C19.4761 11.5181 19.4892 11.5972 19.4993 11.6762C19.5098 11.7553 19.5156 11.8342 19.5201 11.9132C19.5226 11.9737 19.5244 12.0341 19.5239 12.0946C19.5255 12.0998 19.5271 12.1051 19.5287 12.1104L19.5312 12.1056C19.6038 11.9671 19.6523 11.8129 19.6525 11.6555C19.6526 11.5232 19.6202 11.3924 19.5691 11.2709C19.5579 11.2441 19.5457 11.2178 19.5327 11.1919C19.5188 11.1642 19.5038 11.1372 19.488 11.1106L19.4877 11.1099C19.4875 11.1101 19.4874 11.1104 19.4873 11.1105C19.4698 11.1361 19.4531 11.1621 19.4374 11.1888C19.4228 11.2139 19.4089 11.2394 19.396 11.2654C19.3337 11.3905 19.2915 11.5277 19.287 11.6681C19.2845 11.7462 19.2937 11.8241 19.3117 11.9001C19.3181 11.8942 19.3882 11.8344 19.3882 11.8344ZM19.201 12.016C19.1651 11.9022 19.1456 11.7832 19.1494 11.6637C19.1514 11.6025 19.1595 11.5418 19.1727 11.4823C19.1292 11.4279 19.0799 11.378 19.0271 11.3328C19.0051 11.3139 18.9824 11.2958 18.9591 11.2784C18.9343 11.2599 18.9088 11.2424 18.8827 11.2257L18.8821 11.2253C18.8821 11.2255 18.882 11.2258 18.882 11.226C18.8778 11.2567 18.8746 11.2875 18.8726 11.3183C18.8707 11.3473 18.8697 11.3763 18.8698 11.4053C18.8701 11.5451 18.8939 11.6866 18.9527 11.8142C18.9995 11.9155 19.0674 12.0058 19.1467 12.0843L19.1494 12.0806C19.1553 12.0728 19.1614 12.0649 19.1675 12.0572C19.1784 12.0433 19.1896 12.0296 19.201 12.016ZM4.77337 11.6429C4.7928 11.6199 4.81168 11.5965 4.82999 11.5725C4.95778 11.4057 5.05873 11.2153 5.10581 11.0095C5.13694 10.8734 5.14462 10.7325 5.13484 10.5935C5.12273 10.4212 5.08461 10.251 5.02664 10.0885L5.02265 10.0776L5.02125 10.0738C5.02025 10.0747 5.01925 10.0756 5.01824 10.0765C4.9448 10.1422 4.8762 10.2133 4.81338 10.2893C4.80571 10.2986 4.79811 10.3079 4.7906 10.3174C4.87509 10.5092 4.92864 10.7155 4.9324 10.9255C4.93646 11.1522 4.88398 11.3773 4.79783 11.5861C4.78997 11.6052 4.78181 11.6241 4.77337 11.6429ZM4.1364 10.3346C4.0591 10.2495 3.97378 10.1715 3.88289 10.1012L3.87362 10.0941L3.87042 10.0917C3.87005 10.093 3.86969 10.0943 3.86932 10.0956C3.84294 10.1905 3.82351 10.2874 3.81158 10.3852C3.80214 10.4626 3.79737 10.5406 3.79803 10.6186C3.7993 10.7664 3.8203 10.9146 3.86746 11.055C3.91462 11.1954 3.98738 11.3262 4.07563 11.4448C4.1222 11.5073 4.17313 11.5667 4.2274 11.6227C4.23028 11.6257 4.23551 11.6305 4.23551 11.6305C4.22997 11.6199 4.22454 11.6092 4.21919 11.5985C4.11577 11.3914 4.04663 11.1644 4.03767 10.9321C4.02983 10.7288 4.06829 10.5259 4.1364 10.3346ZM4.65328 11.5744C4.68971 11.4917 4.72025 11.4065 4.74377 11.3193C4.7792 11.1879 4.79834 11.0517 4.79451 10.9155C4.79033 10.767 4.75849 10.6203 4.70803 10.4809C4.68132 10.4072 4.64939 10.3353 4.61324 10.2657C4.56629 10.1752 4.5122 10.0886 4.45188 10.0065L4.44948 10.0033C4.44877 10.0044 4.44806 10.0055 4.44734 10.0067C4.39352 10.0932 4.34626 10.1837 4.30642 10.2774C4.27574 10.3497 4.24943 10.4238 4.22849 10.4994C4.1889 10.6423 4.16849 10.791 4.17575 10.9394C4.18279 11.083 4.21534 11.2247 4.26515 11.3593C4.29179 11.4314 4.32325 11.5016 4.35889 11.5697L4.36177 11.5627C4.37524 11.5306 4.38963 11.4989 4.40524 11.4678L4.40786 11.4626L4.41987 11.4398C4.41735 11.3865 4.41539 11.3331 4.41363 11.2798C4.41104 11.1609 4.40978 11.0419 4.41325 10.9226C4.41622 10.8033 4.42222 10.6838 4.43653 10.5637H4.43719C4.4667 10.6809 4.4879 10.7987 4.50606 10.9166C4.52473 11.0345 4.53871 11.1527 4.55132 11.271C4.55829 11.3441 4.56486 11.4172 4.57014 11.4904C4.58699 11.5064 4.60347 11.5227 4.61969 11.5392C4.63102 11.5508 4.64222 11.5625 4.65328 11.5744ZM19.7406 11.2768C19.7649 11.2578 19.7885 11.2379 19.8113 11.2172C19.9272 11.1122 20.026 10.9843 20.0805 10.8366C20.1263 10.7126 20.141 10.5785 20.1351 10.4469C20.1337 10.418 20.1314 10.389 20.1281 10.3602C20.1247 10.3294 20.1199 10.2989 20.1143 10.2684L20.1142 10.2677C20.114 10.2678 20.1138 10.268 20.1136 10.2681C20.0884 10.2861 20.0637 10.3048 20.0398 10.3244C20.0174 10.3429 19.9956 10.362 19.9745 10.382C19.9089 10.4439 19.8494 10.5133 19.8013 10.5898C19.8126 10.6337 19.8208 10.6784 19.8257 10.7237C19.8443 10.8954 19.8149 11.07 19.7574 11.2319C19.752 11.247 19.7465 11.2619 19.7406 11.2768ZM19.3046 11.144C19.2461 11.0324 19.2044 10.912 19.1882 10.7869C19.1804 10.7262 19.1786 10.665 19.1822 10.6041C19.1305 10.5574 19.0738 10.516 19.0145 10.4798C18.9898 10.4647 18.9644 10.4504 18.9387 10.437C18.9113 10.4227 18.8832 10.4096 18.8549 10.3972L18.8542 10.3969C18.8542 10.3971 18.8542 10.3974 18.8542 10.3976C18.8551 10.4286 18.8568 10.4594 18.8597 10.4903C18.8624 10.5192 18.8662 10.5479 18.8709 10.5766C18.8936 10.7145 18.9397 10.8504 19.0182 10.9669C19.0841 11.0647 19.1713 11.1465 19.2682 11.2133C19.2781 11.1932 19.2884 11.1734 19.2991 11.1538C19.3009 11.1506 19.3027 11.1473 19.3046 11.144ZM19.6077 11.0425C19.6224 11.0673 19.6364 11.0925 19.6496 11.1182C19.6894 10.9825 19.706 10.8386 19.6835 10.6984C19.6626 10.5678 19.6095 10.4438 19.5397 10.3321C19.5244 10.3075 19.5081 10.2834 19.4911 10.2599C19.473 10.2348 19.4539 10.2105 19.434 10.1867L19.4335 10.1862C19.4334 10.1864 19.4333 10.1866 19.4332 10.1869C19.4201 10.2149 19.4078 10.2433 19.3966 10.2721C19.3861 10.2992 19.3766 10.3266 19.3679 10.3543C19.3265 10.4878 19.3068 10.6299 19.3248 10.7692C19.3353 10.8514 19.3589 10.9312 19.3917 11.0072L19.4523 10.9309C19.4478 10.8734 19.4445 10.8157 19.4436 10.7576C19.442 10.678 19.4433 10.5979 19.4529 10.5165L19.4536 10.5164C19.4874 10.591 19.513 10.6669 19.5355 10.7434C19.5586 10.8197 19.577 10.8968 19.5941 10.974C19.5988 10.9968 19.6033 11.0196 19.6077 11.0425ZM19.7503 10.305C19.7725 10.2836 19.7939 10.2614 19.8144 10.2384C19.9189 10.122 20.0038 9.98449 20.0427 9.83199C20.0755 9.70387 20.0762 9.56903 20.0567 9.43876C20.0524 9.41008 20.047 9.38152 20.0408 9.35318C20.0341 9.32296 20.0263 9.29308 20.0175 9.26341L20.0173 9.2627C20.0171 9.26286 20.0169 9.26303 20.0168 9.26319C19.9936 9.28367 19.971 9.3048 19.9493 9.32682C19.9288 9.34745 19.9091 9.36881 19.8902 9.39077C19.8314 9.45918 19.7794 9.53446 19.7395 9.61553C19.7552 9.65802 19.7681 9.70161 19.7777 9.74613C19.814 9.91498 19.8028 10.0916 19.7623 10.2587C19.7586 10.2742 19.7545 10.2896 19.7503 10.305ZM19.2826 10.1866C19.2227 10.0902 19.1763 9.98554 19.1502 9.87497C19.1363 9.81636 19.1283 9.75675 19.1253 9.69682L19.1252 9.69379C19.069 9.65268 19.0083 9.6174 18.9456 9.58757C18.9194 9.57508 18.8928 9.56352 18.8657 9.55285C18.8369 9.54151 18.8078 9.53127 18.7783 9.52192L18.7775 9.5217C18.7775 9.52192 18.7776 9.52219 18.7776 9.52241C18.7816 9.55312 18.7865 9.58367 18.7926 9.61399C18.7984 9.64244 18.8051 9.67068 18.8127 9.69869C18.8496 9.83347 18.9095 9.96391 18.9996 10.0716C19.0691 10.1546 19.155 10.2224 19.2486 10.2766C19.2505 10.271 19.2524 10.2653 19.2544 10.2597C19.2628 10.2362 19.2717 10.2129 19.2813 10.1899L19.2826 10.1866ZM19.3316 9.25285C19.3215 9.28207 19.3122 9.31157 19.3041 9.3414C19.2964 9.36941 19.2897 9.39765 19.284 9.4261C19.2566 9.56314 19.2518 9.70662 19.2841 9.84327C19.3001 9.91085 19.325 9.9758 19.3564 10.0375L19.4041 9.9589L19.4257 9.97976C19.4161 9.92665 19.4076 9.87332 19.4012 9.81938C19.3913 9.7403 19.3843 9.6605 19.3854 9.57855L19.3861 9.57838C19.4274 9.64916 19.4607 9.72203 19.4911 9.79566C19.522 9.86919 19.5483 9.94393 19.5733 10.019C19.5939 10.0848 19.6139 10.1509 19.6306 10.2177C19.6318 10.2124 19.633 10.2071 19.6343 10.2018C19.6681 10.0491 19.6745 9.88763 19.6335 9.73568C19.5992 9.60794 19.5336 9.49016 19.4526 9.38625C19.4348 9.36336 19.4161 9.34107 19.3968 9.3195C19.3761 9.29644 19.3546 9.2742 19.3324 9.25263L19.3319 9.25213L19.3316 9.25285ZM5.30591 8.61053C5.30591 8.61053 5.18662 8.6944 5.12387 8.72929C5.0912 8.74746 5.05804 8.76474 5.02442 8.78114C5.06058 8.984 5.06414 9.19335 5.02006 9.39511C4.97167 9.61663 4.86864 9.82351 4.73662 10.0068C4.72456 10.0236 4.71225 10.0401 4.6997 10.0565C4.72391 10.0385 4.7477 10.0201 4.77102 10.0011C4.9339 9.86809 5.07607 9.70623 5.1694 9.5168C5.23112 9.39154 5.2711 9.25631 5.29371 9.11873C5.32127 8.95103 5.32386 8.77938 5.30591 8.61053ZM4.59387 9.96831L4.59543 9.96627C4.74071 9.77514 4.85351 9.55439 4.89531 9.31647C4.92012 9.17525 4.91996 9.03034 4.90169 8.88835C4.88014 8.72082 4.83402 8.55659 4.76926 8.40073L4.76471 8.39L4.76312 8.38631C4.76216 8.38725 4.76121 8.38818 4.76025 8.38912C4.69026 8.45857 4.62537 8.53304 4.56651 8.61212C4.51994 8.6747 4.47711 8.74008 4.43903 8.80816C4.36687 8.93716 4.31165 9.07629 4.28304 9.22159C4.25443 9.36683 4.25278 9.51652 4.27065 9.66325C4.28008 9.74068 4.29492 9.8174 4.31429 9.89297C4.3183 9.9086 4.3225 9.92417 4.3269 9.93969C4.34542 9.90986 4.36481 9.88058 4.38532 9.85208L4.38873 9.84745L4.39012 9.84558C4.40348 9.77024 4.41827 9.69517 4.43348 9.62016C4.45842 9.50381 4.48468 9.38774 4.51562 9.27244C4.54606 9.15709 4.57942 9.04223 4.62109 8.92874L4.62176 8.92885C4.62341 9.04971 4.61686 9.16914 4.60728 9.28807C4.59825 9.40711 4.58454 9.52533 4.56951 9.64333C4.55823 9.72434 4.5465 9.80524 4.5331 9.88587C4.55128 9.90898 4.56873 9.9327 4.58571 9.9567C4.58844 9.96055 4.59116 9.9644 4.59387 9.96831ZM4.17951 9.92137C4.17647 9.90937 4.17355 9.89737 4.17073 9.88532C4.11579 9.65081 4.10207 9.40403 4.15368 9.16765C4.1951 8.97794 4.27639 8.79908 4.38197 8.63639C4.32456 8.53232 4.25705 8.4337 4.18183 8.34184L4.17926 8.33871C4.1786 8.33992 4.17796 8.34107 4.1773 8.34223C4.12971 8.42858 4.08844 8.51829 4.05424 8.61075C4.02718 8.68389 4.00452 8.75874 3.98716 8.83474C3.95427 8.97888 3.94048 9.12792 3.95397 9.27536C3.96745 9.4228 4.00806 9.56688 4.06655 9.70265C4.09741 9.77425 4.13327 9.84371 4.17315 9.91074C4.17526 9.91432 4.17738 9.91784 4.17951 9.92137ZM19.1625 9.33903C19.0946 9.25241 19.0385 9.15665 19.0007 9.05312C18.9801 8.99655 18.9651 8.93826 18.9551 8.8791L18.9546 8.87613C18.894 8.84184 18.8297 8.81394 18.7638 8.79165C18.7364 8.78229 18.7086 8.77398 18.6805 8.76655C18.6505 8.75863 18.6204 8.75191 18.59 8.74608L18.5892 8.74591C18.5893 8.74619 18.5894 8.74641 18.5894 8.74663C18.597 8.77668 18.6054 8.8064 18.6151 8.83584C18.6241 8.86342 18.634 8.89066 18.6449 8.91757C18.6974 9.04712 18.7721 9.16969 18.8743 9.26606C18.952 9.33942 19.0439 9.39605 19.1418 9.43876C19.1472 9.40684 19.1537 9.37514 19.1613 9.34377L19.1625 9.33903ZM19.6472 9.40986C19.6667 9.38598 19.6853 9.36138 19.7031 9.33623C19.7931 9.20832 19.8613 9.06182 19.8821 8.90579C19.8996 8.7747 19.8845 8.64074 19.8498 8.51366C19.8421 8.48571 19.8335 8.45797 19.824 8.43056C19.8138 8.40134 19.8025 8.37255 19.7903 8.3441L19.7901 8.34338C19.7899 8.3436 19.7897 8.34377 19.7896 8.34393C19.7689 8.36699 19.749 8.39066 19.73 8.41509C19.7122 8.43799 19.6951 8.46144 19.6789 8.48554C19.6285 8.56033 19.5857 8.64118 19.5555 8.72638C19.5761 8.76672 19.5941 8.80849 19.6088 8.85158C19.6647 9.01504 19.6743 9.19176 19.6537 9.36242C19.6518 9.37827 19.6496 9.39407 19.6472 9.40986ZM19.5247 9.25676C19.5312 9.12148 19.515 8.98422 19.4645 8.85808C19.4153 8.73529 19.3364 8.62599 19.2438 8.53227C19.2234 8.51163 19.2022 8.49176 19.1805 8.47255C19.1572 8.45208 19.1333 8.43254 19.1087 8.41372L19.1081 8.41322C19.1081 8.4135 19.108 8.41372 19.108 8.41399C19.1013 8.44421 19.0955 8.47459 19.091 8.50519C19.0867 8.53386 19.0834 8.5627 19.081 8.59165C19.0699 8.731 19.0819 8.87398 19.13 9.00596C19.1516 9.06501 19.1801 9.12115 19.2139 9.17398L19.2145 9.17233C19.2218 9.15373 19.2294 9.13529 19.2375 9.11707L19.2401 9.11135L19.2791 9.02918L19.2664 9.05599C19.2583 9.02704 19.2505 8.99787 19.2435 8.96848C19.2244 8.89115 19.2082 8.81267 19.1996 8.73117L19.2002 8.73095C19.2496 8.79633 19.2912 8.86485 19.33 8.93441C19.3693 9.00381 19.4042 9.07492 19.4378 9.14657C19.4422 9.15654 19.4467 9.16655 19.4512 9.17651C19.4738 9.19941 19.4956 9.22307 19.5166 9.2474C19.5193 9.25048 19.522 9.25362 19.5247 9.25676ZM18.954 8.4906C18.886 8.41961 18.8271 8.34025 18.7819 8.2528C18.7542 8.19936 18.7319 8.14344 18.7145 8.08604L18.7136 8.08312C18.6491 8.05687 18.5817 8.03739 18.5136 8.02368C18.4852 8.0179 18.4565 8.01317 18.4277 8.00943C18.397 8.00536 18.3662 8.00255 18.3353 8.00062L18.3345 8.00057C18.3347 8.00084 18.3348 8.00106 18.3348 8.00128C18.3462 8.03007 18.3584 8.05852 18.3716 8.08642C18.3841 8.11262 18.3975 8.13843 18.4117 8.16375C18.4803 8.28554 18.5701 8.39754 18.6837 8.48015C18.7619 8.537 18.8499 8.57888 18.9419 8.60844L18.942 8.60634C18.9437 8.57888 18.9462 8.55153 18.9495 8.52429C18.9508 8.51306 18.9523 8.50183 18.954 8.4906ZM5.33285 8.41911C5.40629 8.35643 5.47367 8.28675 5.53203 8.20981C5.62179 8.09149 5.68897 7.9572 5.73699 7.81691C5.79414 7.65004 5.82528 7.47437 5.83416 7.29837L5.83467 7.28675L5.83482 7.28274C5.83355 7.28318 5.83228 7.28362 5.83102 7.28406C5.73797 7.31669 5.64738 7.35604 5.56023 7.40216C5.54958 7.40783 5.53898 7.41356 5.52844 7.41939C5.53296 7.62891 5.50335 7.83992 5.42634 8.03546C5.34971 8.22996 5.22919 8.4048 5.08575 8.55621L5.09558 8.54988C5.12568 8.53039 5.15628 8.51174 5.18734 8.49391C5.23125 8.46864 5.33285 8.41911 5.33285 8.41911ZM19.4685 8.52434C19.4848 8.49814 19.5002 8.47134 19.5146 8.44415C19.5876 8.30585 19.6366 8.15186 19.6373 7.99446C19.6379 7.86221 19.6059 7.73122 19.5553 7.60959C19.5441 7.58279 19.532 7.55643 19.5191 7.53045C19.5053 7.50277 19.4904 7.47564 19.4747 7.449L19.4743 7.44834C19.4742 7.44856 19.4741 7.44878 19.4739 7.44894C19.4563 7.47448 19.4396 7.50046 19.4239 7.5271C19.4091 7.55208 19.3952 7.57756 19.3821 7.60349C19.3417 7.68406 19.3096 7.76969 19.2905 7.85802C19.3162 7.89545 19.3392 7.93458 19.3593 7.97547C19.4356 8.13051 19.4676 8.30453 19.4689 8.47641C19.469 8.49237 19.4689 8.50833 19.4685 8.52434ZM4.95192 8.49655C5.00519 8.44322 5.05521 8.38664 5.10123 8.32693C5.1843 8.21911 5.25418 8.10062 5.30282 7.97332C5.35582 7.83458 5.38269 7.68686 5.38949 7.53876C5.39758 7.36259 5.37826 7.18521 5.33747 7.01378L5.3347 7.0025L5.33371 6.99859C5.33262 6.99936 5.33153 7.00013 5.33043 7.0009C5.25025 7.05825 5.17432 7.12148 5.10359 7.19017C5.04763 7.24449 4.99491 7.30222 4.94645 7.36336C4.85201 7.48246 4.77359 7.61504 4.72217 7.75841C4.6736 7.8938 4.64937 8.03711 4.64376 8.18059C4.64206 8.22412 4.64201 8.26771 4.64355 8.31124C4.67106 8.28334 4.69943 8.25626 4.72878 8.23029L4.80669 8.16507L4.8092 8.1698L4.81139 8.16397C4.85455 8.05313 4.89903 7.94272 4.94798 7.83381C4.99637 7.72484 5.04773 7.61675 5.10697 7.51135L5.10757 7.51158C5.08995 7.63111 5.06436 7.74801 5.036 7.86391C5.00804 7.97998 4.97561 8.09446 4.94198 8.2086C4.92739 8.25604 4.91265 8.30337 4.89747 8.35059C4.9005 8.35786 4.90348 8.36512 4.90642 8.37244C4.9229 8.41328 4.93807 8.45472 4.95192 8.49655ZM19.3298 8.42368C19.3224 8.27679 19.289 8.12941 19.217 8.00029C19.1526 7.88477 19.0603 7.78642 18.9566 7.7053C18.9337 7.68741 18.9102 7.67035 18.8862 7.65412C18.8605 7.63673 18.8342 7.62044 18.8075 7.60486L18.8068 7.60453C18.8068 7.60475 18.8068 7.60503 18.8068 7.60525C18.804 7.63607 18.8022 7.66694 18.8015 7.69787C18.8009 7.72687 18.8013 7.75593 18.8027 7.78488C18.8094 7.92451 18.8395 8.06485 18.9041 8.18956C18.9283 8.23623 18.957 8.28026 18.9893 8.32153L19.0296 8.19803L19.0379 8.20304C19.0289 8.18152 19.0202 8.15984 19.0119 8.13799C18.9831 8.06369 18.957 7.98796 18.9381 7.90816L18.9387 7.90789C18.996 7.96644 19.046 8.02908 19.0934 8.09314C19.1412 8.15698 19.1849 8.22313 19.2273 8.28983C19.2449 8.31851 19.2623 8.34724 19.2793 8.37624C19.2832 8.37976 19.2872 8.38334 19.2911 8.38692C19.3042 8.39891 19.3171 8.41113 19.3298 8.42368ZM4.91752 7.18472C4.87874 7.07641 4.82981 6.97173 4.77281 6.87201L4.76696 6.86188L4.76492 6.85847C4.7641 6.85951 4.76327 6.86056 4.76243 6.8616C4.69964 6.94185 4.64293 7.02677 4.59324 7.1157C4.55682 7.18092 4.52416 7.24828 4.49613 7.31752C4.44066 7.4545 4.40326 7.59947 4.39304 7.74713C4.38282 7.89484 4.39991 8.04355 4.43598 8.18692C4.45503 8.26254 4.47934 8.33683 4.508 8.40937C4.50951 8.41317 4.51103 8.41697 4.51257 8.42082C4.51272 8.42247 4.51063 8.39792 4.50966 8.38394C4.49287 8.14366 4.5187 7.89787 4.60739 7.67266C4.67855 7.49204 4.78733 7.32847 4.91752 7.18472ZM18.6636 7.71213C18.5641 7.64955 18.4735 7.57294 18.3998 7.48114C18.3621 7.4342 18.3292 7.38384 18.3007 7.331C18.3007 7.331 18.2493 7.31989 18.2242 7.31697C18.189 7.31295 18.1536 7.31086 18.1182 7.30987C18.105 7.30965 18.0917 7.30959 18.0784 7.30965C18.0537 7.31003 18.0291 7.31086 18.0045 7.31257C17.9736 7.31466 17.9428 7.31796 17.9122 7.3222L17.9115 7.32231C17.9391 7.36579 17.9698 7.40745 18.0026 7.44713C18.1022 7.56766 18.2256 7.67206 18.3707 7.7332C18.4643 7.77266 18.5645 7.79402 18.6657 7.80183C18.6645 7.77949 18.6636 7.71961 18.6636 7.71213ZM18.8856 6.64284C18.8796 6.6599 18.8208 6.95885 18.8203 6.99358C18.8528 7.02523 18.8832 7.05907 18.911 7.09518C19.0164 7.23205 19.0823 7.39633 19.1175 7.56457C19.1208 7.58015 19.1238 7.59584 19.1266 7.61158C19.1374 7.58268 19.1471 7.5534 19.1559 7.52385C19.2001 7.37388 19.2176 7.21323 19.1872 7.0588C19.1617 6.92902 19.1043 6.80701 19.0307 6.69776C19.0145 6.67371 18.9974 6.65021 18.9796 6.62732C18.9605 6.60294 18.9406 6.57927 18.92 6.55621L18.9195 6.55566C18.9194 6.55594 18.9192 6.55616 18.9191 6.55638C18.907 6.58483 18.8957 6.61361 18.8856 6.64284ZM18.9721 7.54619C18.9361 7.40156 18.8738 7.26149 18.7764 7.14762C18.6904 7.04713 18.5805 6.96892 18.4627 6.90993C18.4368 6.89694 18.4103 6.88483 18.3836 6.87366C18.355 6.86171 18.3261 6.85087 18.2967 6.84097L18.296 6.84069C18.2961 6.84097 18.2961 6.84119 18.2961 6.84146C18.2995 6.87223 18.3038 6.90283 18.3093 6.93332C18.3144 6.96188 18.3206 6.99022 18.3277 7.0184C18.3618 7.1539 18.4191 7.28549 18.5071 7.39501C18.5553 7.455 18.612 7.50745 18.6739 7.55291L18.6909 7.45362C18.6604 7.41103 18.6307 7.36771 18.6026 7.32308C18.5596 7.25599 18.519 7.18692 18.4848 7.11246L18.4853 7.11202C18.553 7.15814 18.6145 7.20959 18.6736 7.26309C18.7331 7.31614 18.7889 7.37234 18.8438 7.42941C18.8687 7.45626 18.8934 7.48318 18.9177 7.51058C18.9361 7.52203 18.9543 7.53386 18.9721 7.54619ZM5.4774 7.00772C5.49006 7.06353 5.5121 7.17415 5.5121 7.17415C5.68698 7.05742 5.84403 6.90987 5.95508 6.73029C6.02852 6.61152 6.08127 6.4807 6.11695 6.34592C6.16114 6.17905 6.18006 6.00558 6.17767 5.83315L6.17743 5.82149L6.17732 5.81747C6.17609 5.81802 6.17485 5.81851 6.17362 5.81901C6.08287 5.85759 5.99499 5.90266 5.91099 5.95429C5.84453 5.99512 5.78051 6.04003 5.71989 6.08912C5.60503 6.18219 5.50213 6.29088 5.42168 6.41521C5.34122 6.53954 5.28417 6.6779 5.24634 6.82077C5.23881 6.84922 5.23203 6.87784 5.22598 6.90662L5.22638 6.90635C5.2584 6.88285 5.29115 6.86034 5.32472 6.83909L5.41203 6.78714L5.4247 6.82451C5.48745 6.73134 5.55132 6.63888 5.61882 6.54862C5.68983 6.45274 5.76349 6.35847 5.84425 6.26854L5.8448 6.26887C5.80153 6.38175 5.7511 6.49022 5.69814 6.59716C5.64557 6.70437 5.58898 6.80905 5.53128 6.91306C5.51338 6.94449 5.49541 6.9758 5.47725 7.00706L5.4774 7.00772ZM5.96922 7.10172C5.97047 7.13062 5.971 7.14295 5.971 7.14295C6.0289 7.10574 6.08397 7.06419 6.13532 7.01796C6.2447 6.9195 6.33572 6.80184 6.40992 6.67503C6.49528 6.52913 6.55951 6.37085 6.60348 6.20778L6.6045 6.20393C6.60317 6.20409 6.60184 6.2042 6.6005 6.20437C6.49931 6.21631 6.39906 6.2359 6.30091 6.26331C6.29248 6.26568 6.28406 6.2681 6.27566 6.27058C6.23442 6.47603 6.15954 6.67558 6.04176 6.84961C5.96128 6.96848 5.86262 7.07382 5.75268 7.1659C5.79441 7.15054 5.83667 7.13656 5.87954 7.12473L5.96922 7.10172ZM18.179 6.9845C18.0951 6.93233 18.0179 6.86975 17.952 6.79584C17.9114 6.75016 17.8755 6.70068 17.844 6.64851C17.8022 6.64278 17.76 6.6397 17.7177 6.63877C17.7084 6.63866 17.699 6.6386 17.6896 6.6386C17.6115 6.63932 17.5337 6.64735 17.457 6.66193L17.4562 6.6621C17.4861 6.70404 17.5188 6.7441 17.5536 6.78208C17.6592 6.89738 17.7878 6.99534 17.9358 7.049C18.0231 7.08065 18.115 7.09694 18.2077 7.10156L18.2074 7.10046C18.1974 7.06617 18.179 6.9845 18.179 6.9845ZM5.7305 5.90861C5.72797 5.88835 5.7251 5.86821 5.72193 5.84807C5.70655 5.75071 5.6837 5.65462 5.65398 5.56062L5.65275 5.55682C5.65171 5.55765 5.65066 5.55847 5.64962 5.55935C5.51617 5.66882 5.3959 5.79556 5.29678 5.93701C5.20982 6.06117 5.13934 6.1976 5.0961 6.34317C5.05394 6.48511 5.03819 6.63392 5.04216 6.78169C5.04426 6.85968 5.05179 6.9375 5.06396 7.01449C5.06461 7.01857 5.06526 7.02264 5.06594 7.02671L5.06609 7.02556C5.06767 7.01367 5.06935 7.00184 5.07114 6.99C5.10574 6.76105 5.17978 6.53568 5.30613 6.34047C5.41669 6.16964 5.56474 6.02589 5.7305 5.90861ZM18.7337 6.66601C18.7473 6.55522 18.7441 6.4424 18.7169 6.33392C18.6848 6.20564 18.6214 6.0867 18.5422 5.98136C18.5248 5.95814 18.5065 5.93558 18.4876 5.91362C18.4673 5.89017 18.4462 5.86761 18.4244 5.84559L18.4239 5.8451C18.4238 5.84532 18.4237 5.84554 18.4236 5.84581C18.4129 5.87482 18.4031 5.90415 18.3945 5.93387C18.3863 5.96172 18.3791 5.98984 18.373 6.01824C18.3537 6.10635 18.3438 6.19727 18.3472 6.28758L18.3493 6.28945C18.3826 6.31884 18.4139 6.35043 18.4429 6.38434C18.5551 6.51565 18.6293 6.67641 18.6731 6.84262C18.6764 6.85517 18.6796 6.86777 18.6825 6.88043L18.6864 6.88318C18.6882 6.87751 18.6922 6.86138 18.6922 6.86138C18.7009 6.79529 18.7151 6.72985 18.7337 6.66601ZM17.8159 6.16227C17.8209 6.19281 17.8267 6.22314 17.8337 6.2533C17.8403 6.28153 17.8479 6.3096 17.8564 6.33734C17.8975 6.47096 17.9614 6.59941 18.0548 6.70431C18.0854 6.7386 18.1188 6.77008 18.1544 6.79881L18.1543 6.79666C18.1536 6.78422 18.1525 6.66205 18.1525 6.66205L18.1748 6.66705C18.1653 6.65407 18.1557 6.64097 18.1464 6.6277C18.1002 6.56282 18.0561 6.49595 18.0181 6.4233L18.0186 6.42286C18.0886 6.46546 18.1526 6.51372 18.2144 6.56408C18.2765 6.61416 18.3351 6.66738 18.3928 6.72159L18.4057 6.73414C18.4242 6.74141 18.4426 6.74906 18.4608 6.75704C18.4773 6.7643 18.4936 6.77184 18.5099 6.77977C18.4661 6.6561 18.4016 6.5391 18.3111 6.44361C18.2201 6.34757 18.1065 6.27509 17.9858 6.22215C17.9592 6.21048 17.9322 6.19975 17.9049 6.18995C17.8758 6.17944 17.8463 6.17014 17.8165 6.16172L17.8158 6.1615L17.8159 6.16227ZM17.2031 6.01521C17.1732 6.01576 17.1433 6.01703 17.1134 6.01956C17.0747 6.02281 17.0361 6.02792 16.9978 6.03453L16.9971 6.03469C17.0262 6.07718 17.0583 6.11774 17.0924 6.15632C17.1961 6.27344 17.323 6.37349 17.4701 6.42974C17.564 6.46557 17.6638 6.48356 17.7641 6.48813C17.7497 6.45274 17.7369 6.4167 17.7256 6.38026L17.7242 6.37575C17.6374 6.32088 17.5578 6.25484 17.4906 6.17685C17.4513 6.13117 17.4167 6.08197 17.3865 6.03013L17.3851 6.02765C17.3651 6.02462 17.2615 6.00795 17.2031 6.01521ZM12.9488 6.26326C12.6295 6.4878 12.188 6.4113 11.9634 6.09155C11.7388 6.4113 11.2973 6.4878 10.978 6.26326C10.7099 6.07504 10.6064 5.72721 10.728 5.42286C10.7962 5.78555 11.1459 6.0244 11.5087 5.95561C11.6997 5.91984 11.866 5.80206 11.9634 5.63365C12.0608 5.80206 12.2271 5.91984 12.4181 5.95561C12.7809 6.0244 13.1305 5.78555 13.1988 5.42286C13.3204 5.72721 13.2169 6.07504 12.9488 6.26326ZM18.2807 5.83679C18.2773 5.80024 18.2716 5.76392 18.2632 5.72804C18.2333 5.5992 18.1719 5.47922 18.0946 5.37251C18.0775 5.349 18.0597 5.32611 18.0411 5.30388C18.0212 5.2801 18.0005 5.25715 17.9791 5.23481L17.9786 5.23426C17.9785 5.23453 17.9784 5.23475 17.9783 5.23497C17.9671 5.26386 17.9568 5.29298 17.9476 5.32253C17.939 5.35027 17.9313 5.37828 17.9247 5.40652C17.9039 5.4943 17.8925 5.58505 17.8943 5.67537C17.9279 5.70586 17.9594 5.7386 17.9884 5.77372C18.0851 5.89094 18.152 6.03035 18.1946 6.17586C18.2 6.17916 18.2055 6.18252 18.2109 6.18599C18.2158 6.10079 18.2302 6.01604 18.2517 5.9337C18.2599 5.90239 18.2807 5.83679 18.2807 5.83679ZM17.3653 5.54102C17.3697 5.57168 17.375 5.60211 17.3816 5.63238C17.3877 5.66073 17.3947 5.68891 17.4028 5.71675C17.4416 5.85104 17.5033 5.98065 17.5949 6.08709C17.6205 6.11686 17.6483 6.1446 17.6778 6.17041C17.6738 6.14284 17.6707 6.11521 17.6686 6.08747L17.6633 5.99045L17.6744 5.99232C17.6342 5.93282 17.5961 5.87146 17.563 5.80547L17.5635 5.80503C17.6328 5.84878 17.6959 5.89815 17.7568 5.94955C17.7868 5.97465 17.816 6.00041 17.8446 6.02671C17.8476 6.02754 17.8506 6.02837 17.8536 6.02919C17.895 6.0408 17.9359 6.05429 17.9761 6.06959C17.9896 6.07471 18.0031 6.0801 18.0166 6.08566C17.9769 5.9927 17.9241 5.90547 17.8556 5.83073C17.7663 5.73321 17.6539 5.6588 17.5341 5.60382C17.5077 5.59171 17.4809 5.58054 17.4538 5.57025C17.4249 5.5593 17.3955 5.54945 17.3659 5.54053L17.3652 5.54031L17.3653 5.54102ZM6.68832 6.05924L6.69165 6.05913C6.75989 6.03249 6.82606 6.00063 6.88899 5.96304C7.02011 5.88467 7.13524 5.78164 7.2338 5.66535C7.28453 5.60547 7.331 5.54207 7.37344 5.47608C7.42854 5.39039 7.47679 5.30035 7.51801 5.20723L7.51962 5.20355C7.49699 5.20256 7.47436 5.20217 7.45172 5.20201C7.43705 5.20201 7.43708 5.20201 7.42242 5.20212C7.38642 5.20267 7.35045 5.20393 7.31451 5.2063C7.27107 5.20911 7.22769 5.2134 7.18451 5.21912C7.11236 5.41593 7.00786 5.60167 6.86487 5.75566C6.73185 5.89892 6.56935 6.01218 6.39452 6.09881L6.40201 6.09727C6.44489 6.08835 6.48804 6.08076 6.5314 6.07459C6.58155 6.06739 6.63199 6.06199 6.6826 6.05946L6.68832 6.05924ZM6.31199 5.98604C6.36112 5.96249 6.40916 5.93673 6.45586 5.90866C6.56894 5.84069 6.67413 5.75886 6.764 5.66205C6.86792 5.55016 6.94956 5.41901 7.01158 5.27977C7.0435 5.20806 7.07033 5.13415 7.09258 5.05891C7.12147 4.96122 7.14256 4.86133 7.15605 4.76034L7.15656 4.75638C7.15526 4.75671 7.15396 4.75704 7.15266 4.75737C7.05709 4.78159 6.96335 4.81274 6.87244 4.85093C6.80052 4.88115 6.73039 4.91571 6.66298 4.95495C6.53525 5.02936 6.41691 5.1211 6.31841 5.23167C6.22243 5.33943 6.14635 5.46381 6.08775 5.5954C6.06797 5.63981 6.0501 5.68505 6.03409 5.73095C6.0463 5.72512 6.05858 5.7194 6.07091 5.71378C6.11704 5.69287 6.16395 5.6735 6.21182 5.65693L6.21724 5.65511L6.25248 5.64361C6.33076 5.55875 6.41015 5.47476 6.49285 5.39364C6.57774 5.30976 6.66494 5.22782 6.75847 5.15132L6.75897 5.1517C6.69896 5.25666 6.63257 5.35616 6.56386 5.45374C6.49554 5.55165 6.42365 5.64647 6.35065 5.74047C6.33848 5.75577 6.32629 5.77107 6.31406 5.78637C6.31505 5.81015 6.31548 5.83392 6.31556 5.8577C6.31571 5.90052 6.3145 5.94334 6.31199 5.98604ZM17.293 5.82539C17.1693 5.75781 17.056 5.67025 16.9669 5.56078C16.9283 5.51329 16.8946 5.46221 16.8655 5.40861C16.8405 5.40404 16.8154 5.40041 16.7902 5.39771C16.755 5.39386 16.7197 5.39199 16.6843 5.39122C16.6709 5.39111 16.6709 5.39111 16.6575 5.39111C16.6324 5.39138 16.6073 5.39221 16.5822 5.39386C16.5474 5.39612 16.5128 5.39991 16.4783 5.40492L16.4776 5.40503C16.5055 5.44829 16.5364 5.48979 16.5695 5.52925C16.6699 5.64917 16.794 5.75275 16.9394 5.81301C17.0253 5.84856 17.1167 5.86893 17.2092 5.87762C17.2143 5.87757 17.2195 5.87751 17.2246 5.87757C17.2544 5.87779 17.2842 5.87889 17.3139 5.88109C17.3065 5.86271 17.2996 5.84416 17.293 5.82539ZM6.70116 4.77807C6.70451 4.6631 6.69708 4.54774 6.68035 4.43415L6.67858 4.42265L6.67794 4.41868C6.67678 4.41934 6.67563 4.42 6.67447 4.42072C6.5896 4.47086 6.50844 4.52716 6.43198 4.5894C6.37149 4.63866 6.31393 4.69155 6.26032 4.74824C6.15584 4.85864 6.06614 4.9839 6.00238 5.1222C5.94217 5.2528 5.90551 5.39347 5.88738 5.53591C5.877 5.61747 5.87249 5.6998 5.87334 5.78203L5.87378 5.78054C5.87715 5.76909 5.88062 5.75764 5.88419 5.7462C5.95615 5.51637 6.06978 5.29683 6.23446 5.11945C6.3666 4.97718 6.52752 4.86453 6.70116 4.77807ZM17.4723 5.43051C17.4381 5.35644 17.3949 5.2867 17.3414 5.22479C17.2548 5.12485 17.1444 5.04741 17.0262 4.98913C17.0002 4.9763 16.9737 4.96436 16.9468 4.95335C16.9182 4.94158 16.8892 4.93095 16.8598 4.92121L16.8591 4.92099C16.8591 4.92121 16.8592 4.92149 16.8592 4.92171C16.8627 4.95247 16.8672 4.98307 16.8729 5.01345C16.8783 5.04202 16.8846 5.07036 16.8919 5.09843C16.9269 5.23376 16.985 5.36497 17.0737 5.47394C17.122 5.53332 17.1787 5.58516 17.2406 5.63002C17.2309 5.58004 17.2239 5.52947 17.2202 5.47872C17.2026 5.45346 17.1853 5.42749 17.1686 5.4014C17.1253 5.33453 17.0842 5.26574 17.0495 5.19149L17.05 5.19105C17.1181 5.23673 17.1798 5.28781 17.2393 5.34091C17.2535 5.35341 17.2675 5.36612 17.2813 5.37894C17.2813 5.37894 17.2753 5.37784 17.3051 5.3834C17.3388 5.39017 17.3722 5.39881 17.4052 5.40866C17.4277 5.41538 17.4501 5.4227 17.4723 5.43051ZM17.7348 5.55555C17.7692 5.41785 17.78 5.27295 17.7516 5.13332C17.7253 5.00377 17.6671 4.88208 17.5928 4.77333C17.5764 4.74939 17.5592 4.726 17.5412 4.70322C17.522 4.67895 17.5019 4.65539 17.4811 4.6325L17.4806 4.63195C17.4805 4.63217 17.4804 4.63239 17.4803 4.63261C17.4684 4.66117 17.4572 4.69001 17.4473 4.71934C17.4379 4.74681 17.4295 4.77454 17.4221 4.80261C17.3989 4.88979 17.385 4.98021 17.3843 5.07058C17.3843 5.07058 17.4482 5.13635 17.4756 5.17146C17.5537 5.27152 17.6105 5.38648 17.6496 5.50712C17.6786 5.52215 17.7071 5.53827 17.7348 5.55555ZM16.7794 5.20487C16.6653 5.14923 16.5594 5.07647 16.4716 4.98445C16.4301 4.94086 16.3931 4.89342 16.3603 4.84323L16.3586 4.8407L16.3573 4.84059C16.3276 4.83756 16.2979 4.83596 16.2681 4.83541C16.2608 4.8353 16.2536 4.8353 16.2464 4.8353C16.1541 4.83591 16.0623 4.84708 15.9723 4.86739L15.9716 4.86755C16.0028 4.9085 16.0368 4.94747 16.0729 4.98423C16.1825 5.0959 16.3142 5.18935 16.464 5.23805C16.4894 5.24631 16.5152 5.2533 16.5412 5.25902C16.5748 5.25616 16.6085 5.25445 16.6421 5.25368C16.6569 5.25352 16.6716 5.25352 16.6864 5.25368C16.7238 5.25445 16.7612 5.25644 16.7984 5.26023C16.7922 5.2435 16.7864 5.22661 16.7809 5.20966L16.7794 5.20487ZM16.9635 4.81202C16.9239 4.74196 16.876 4.67686 16.8186 4.62022C16.7244 4.52732 16.6083 4.45875 16.4859 4.40993C16.4589 4.3992 16.4316 4.3894 16.404 4.38049C16.3745 4.37102 16.3447 4.36271 16.3146 4.35528L16.3139 4.35512C16.314 4.35534 16.314 4.35561 16.3141 4.35583C16.32 4.38621 16.3269 4.41632 16.335 4.4462C16.3425 4.47421 16.351 4.50201 16.3605 4.52941C16.4061 4.66156 16.4743 4.78781 16.5713 4.88951C16.62 4.94059 16.6752 4.98472 16.7347 5.02259L16.734 5.01901C16.7263 4.97476 16.7207 4.93013 16.7176 4.88533L16.7174 4.88219C16.6979 4.85847 16.6788 4.83442 16.6602 4.80982C16.6117 4.74653 16.5655 4.68115 16.525 4.60982L16.5255 4.60938C16.5969 4.64956 16.6625 4.69568 16.7259 4.74394L16.7293 4.74648L16.8033 4.76249C16.8369 4.7702 16.87 4.77977 16.9027 4.7905C16.9232 4.79722 16.9434 4.80437 16.9635 4.81202ZM17.2314 4.94857C17.2601 4.79964 17.2625 4.64345 17.2204 4.49689C17.184 4.36976 17.1165 4.25303 17.0338 4.15044C17.0156 4.12782 16.9966 4.10586 16.9769 4.08456C16.9559 4.06183 16.934 4.03998 16.9115 4.01874L16.911 4.01824C16.9108 4.01852 16.9108 4.01874 16.9107 4.01896C16.901 4.04835 16.8922 4.07801 16.8845 4.10801C16.8774 4.13608 16.8712 4.16447 16.8659 4.19298C16.8497 4.2817 16.8429 4.37295 16.8494 4.4631C16.8844 4.49183 16.9175 4.52292 16.9482 4.55655C17.0402 4.6571 17.1091 4.77669 17.1584 4.90355C17.1832 4.91769 17.2076 4.93272 17.2314 4.94857ZM7.30255 4.67476C7.29992 4.72248 7.29416 4.77003 7.28702 4.81725C7.28421 4.83585 7.28114 4.8544 7.27782 4.87289C7.33096 4.83101 7.37953 4.78351 7.42143 4.73002C7.50324 4.62562 7.55835 4.50217 7.59304 4.37471C7.60069 4.34664 7.60734 4.31824 7.61305 4.28973C7.61913 4.2593 7.62402 4.22864 7.62799 4.19788L7.62812 4.19689C7.62778 4.197 7.62745 4.19705 7.62712 4.19716C7.59754 4.20658 7.56828 4.21692 7.53942 4.22831C7.51236 4.23905 7.48565 4.25071 7.4594 4.26326C7.33287 4.32369 7.21482 4.40608 7.12455 4.51422C7.09004 4.55561 7.05996 4.6003 7.03393 4.64725L7.03811 4.64604C7.09352 4.62963 7.14959 4.61555 7.20631 4.60459L7.23228 4.60014C7.28802 4.54659 7.34611 4.49491 7.41033 4.44807L7.41082 4.44846C7.37989 4.52176 7.3428 4.59028 7.30337 4.65688L7.30255 4.67476Z" fill="#6E6E6E"/>
<path fill-rule="evenodd" clip-rule="evenodd" d="M6.45931 2.05555C8.13493 1.00049 10.077 0.445795 12.057 0.456701C14.0371 0.467607 15.9729 1.04366 17.6368 2.11711C19.3007 3.19057 20.6235 4.71679 21.4497 6.51633C22.2758 8.31586 22.571 10.3139 22.3005 12.2754C22.038 14.1784 21.2484 15.9665 20.0314 17.4485L20.1764 17.6635C20.5771 18.258 20.6293 19.0214 20.3131 19.6649L19.4087 21.5052C18.6705 23.0076 17.0038 23.8141 15.3676 23.4607L15.2844 23.4427C14.9685 23.3745 14.6725 23.2348 14.419 23.0344L14.1003 22.7823C13.7587 22.5121 13.3686 22.3054 12.9532 22.1736C12.2978 21.9658 11.5909 21.9658 10.9365 22.1751C10.5267 22.3062 10.1438 22.5101 9.80621 22.777L9.4826 23.033C9.22799 23.2344 8.93062 23.3747 8.61333 23.4432L8.5323 23.4607C6.89604 23.8141 5.22943 23.0076 4.49116 21.5052L3.55793 19.6061C3.25947 18.9987 3.28399 18.2824 3.6233 17.6969L3.62804 17.6887L3.88048 17.324C2.68094 15.8307 1.92552 14.0675 1.68405 12.1619C1.43514 10.1975 1.7523 8.20282 2.59823 6.4125C3.44416 4.62217 4.78369 3.11061 6.45931 2.05555ZM12.0545 0.927547C10.164 0.917134 8.30994 1.44671 6.71019 2.45399C5.11045 3.46128 3.83158 4.9044 3.02395 6.61365C2.21632 8.3229 1.91353 10.2272 2.15117 12.1027C2.38874 13.9775 3.14717 15.7075 4.35596 17.1617L4.47024 17.2992L4.02614 17.9408C3.77004 18.3888 3.75276 18.9349 3.98052 19.3984L4.91375 21.2976C5.55665 22.6059 7.008 23.3082 8.4329 23.0005L8.51393 22.983C8.76089 22.9296 8.99235 22.8204 9.19051 22.6637L9.51413 22.4077C9.89605 22.1057 10.3293 21.8749 10.7931 21.7266C11.5409 21.4874 12.3476 21.4876 13.0955 21.7248C13.565 21.8737 14.0059 22.1073 14.3924 22.413L14.7111 22.665C14.9081 22.8209 15.1383 22.9295 15.3838 22.9825L15.467 23.0005C16.8919 23.3082 18.3432 22.6059 18.9861 21.2976L19.8905 19.4572C20.1323 18.9651 20.0924 18.3813 19.7859 17.9267L19.4423 17.4169L19.5579 17.2809C20.7827 15.8401 21.5758 14.0832 21.834 12.2111C22.0923 10.3384 21.8105 8.43082 21.0218 6.71278C20.233 4.99473 18.9701 3.53762 17.3816 2.51277C15.793 1.48792 13.9449 0.937959 12.0545 0.927547Z" fill="#E8651D"/>
</svg>
